<svg width="969" height="213" viewBox="0 0 969 213" fill="none" xmlns="http://www.w3.org/2000/svg">
<path d="M0.000195652 213V2.99999H33.0002V183H87.3002V213H0.000195652ZM103.125 213V2.99999H193.125V33H136.125V88.5H181.425V118.5H136.125V183H193.125V213H103.125ZM237.91 213V33H203.41V2.99999H305.41V33H270.91V213H237.91ZM322.517 70.8L335.117 34.8H324.317V2.99999H356.117V31.5L337.817 70.8H322.517ZM423.76 216C391.36 216 375.16 196.8 375.16 163.2V151.2H406.36V165.6C406.36 180.6 412.96 186 423.46 186C433.96 186 440.56 180.6 440.56 165C440.56 147.6 433.96 136.5 412.36 117.6C384.76 93.3 375.76 76.2 375.76 52.2C375.76 19.2 392.86 -1.14441e-05 424.96 -1.14441e-05C457.06 -1.14441e-05 472.96 19.2 472.96 52.8V61.5H441.76V50.7C441.76 35.7 435.76 30 425.26 30C414.76 30 408.76 35.7 408.76 50.1C408.76 65.4 415.66 76.5 437.26 95.4C464.86 119.7 473.56 136.5 473.56 162.6C473.56 196.8 456.16 216 423.76 216ZM566.328 213V33H531.828V2.99999H633.828V33H599.328V213H566.328ZM627.335 213L661.535 2.99999H706.235L740.435 213H707.435L701.435 171.3V171.9H663.935L657.935 213H627.335ZM667.835 143.4H697.535L682.835 39.6H682.235L667.835 143.4ZM756.446 213V2.99999H789.446V183H843.746V213H756.446ZM859.571 213V2.99999H892.571V91.5L934.571 2.99999H967.571L928.271 80.1L968.171 213H933.671L905.771 119.4L892.571 146.1V213H859.571Z" fill="url(#paint0_linear_306_1481)"/>
<defs>
<linearGradient id="paint0_linear_306_1481" x1="479.595" y1="3" x2="479.595" y2="243" gradientUnits="userSpaceOnUse">
<stop stop-color="#232323"/>
<stop offset="1" stop-color="#0A0A0A" stop-opacity="0"/>
</linearGradient>
</defs>
</svg>
