<svg width="52" height="52" viewBox="0 0 52 52" fill="none" xmlns="http://www.w3.org/2000/svg">
<rect width="52" height="52" fill="white"/>
<path d="M24.6722 27.6059C25.0523 27.7959 25.504 27.8495 25.9595 27.8495H25.9613C27.84 27.8495 29.3624 26.3769 29.3624 24.5611C29.3624 22.7454 27.84 21.2729 25.9613 21.2729C24.0826 21.2729 22.5603 22.7454 22.5603 24.5611L22.5601 24.6656C22.5591 25.197 22.5585 25.513 22.8192 25.9709C22.8486 26.0226 22.5161 28.0266 22.5161 28.0266C22.5161 28.0266 24.6134 27.5763 24.6722 27.6059Z" fill="#57A348"/>
<path fill-rule="evenodd" clip-rule="evenodd" d="M37.8431 28.1133C38.8219 27.3309 39.09 26.3603 38.6456 25.207H38.6438C38.1994 24.0537 38.1994 22.8985 38.6438 21.7452C39.0882 20.5901 38.8201 19.6213 37.8413 18.8371C36.8624 18.0528 36.2674 17.0527 36.0581 15.8385C35.8469 14.6243 35.116 13.9157 33.8653 13.7109C32.6129 13.5079 31.5845 12.9303 30.7765 11.98C29.9684 11.0297 28.9694 10.7714 27.7812 11.2013C26.5931 11.6313 25.4031 11.6313 24.2149 11.2013C23.0267 10.7714 22.0277 11.0316 21.2215 11.98C20.4134 12.9303 19.3851 13.5061 18.1326 13.7109C16.8801 13.9139 16.1492 14.6243 15.9399 15.8385C15.7305 17.0527 15.1355 18.0528 14.1567 18.8371C13.1779 19.6213 12.9098 20.5919 13.3542 21.7452C13.7986 22.8985 13.7986 24.0537 13.3542 25.207C12.9098 26.3603 13.1779 27.3291 14.1567 28.1133C15.1355 28.8976 15.7305 29.8977 15.9399 31.1119C16.1511 32.3261 16.882 33.0347 18.1326 33.2395C19.3832 33.4425 20.4134 34.0201 21.2215 34.9704C22.0295 35.9207 23.0285 36.179 24.2167 35.7491C25.4049 35.3191 26.5949 35.3191 27.7831 35.7491C28.9713 36.1809 29.9703 35.9207 30.7783 34.9704C31.5863 34.0201 32.6148 33.4443 33.8672 33.2395C35.1196 33.0365 35.8505 32.3261 36.0599 31.1119C36.2693 29.8977 36.8643 28.8976 37.8431 28.1133ZM28.5232 18.7707L31.2429 16.0655L31.2447 16.0673C32.3742 14.7332 32.5431 15.2037 32.4862 16.9475V24.2641H32.4697C32.4752 24.3748 32.4788 24.4873 32.4788 24.5999C32.4788 28.1078 29.5406 30.9495 25.9172 30.9495C22.2939 30.9495 19.3556 28.1078 19.3556 24.5999C19.3556 21.092 22.2939 18.2503 25.9172 18.2503C26.8428 18.2503 27.7243 18.4348 28.5232 18.7707Z" fill="#57A348"/>
<path d="M23.1751 41.9452V37.4634H22.3077V41.9452H23.1751Z" fill="#57A348"/>
<path fill-rule="evenodd" clip-rule="evenodd" d="M13.6315 38.7202C13.4436 38.3994 13.1773 38.152 12.8326 37.9784C12.4874 37.8049 12.0879 37.7181 11.6337 37.7181H10.1221V41.9448H11.6337C12.0879 41.9448 12.4878 41.858 12.8326 41.6844C13.1773 41.5113 13.4436 41.2659 13.6315 40.9488C13.819 40.632 13.9132 40.2613 13.9132 39.8375C13.9132 39.4137 13.8195 39.041 13.6315 38.7202ZM13.0275 39.8379C13.0275 40.278 12.9035 40.6194 12.6559 40.8616V40.862C12.4078 41.1041 12.0568 41.2253 11.6026 41.2253H10.9895V38.4331H11.6026C12.0568 38.4331 12.4082 38.5572 12.6559 38.8054C12.9035 39.0536 13.0275 39.3979 13.0275 39.8379Z" fill="#57A348"/>
<path fill-rule="evenodd" clip-rule="evenodd" d="M15.1278 40.5221H17.6371C17.6537 40.4252 17.662 40.3165 17.662 40.1952C17.662 39.8683 17.5907 39.5784 17.4484 39.3261C17.3057 39.0739 17.1053 38.8792 16.8473 38.7417C16.5893 38.6042 16.3093 38.5357 15.9708 38.5357C15.6323 38.5357 15.3327 38.6066 15.0726 38.7478C14.8121 38.8889 14.6097 39.0909 14.4653 39.3533C14.3206 39.6157 14.2484 39.9247 14.2484 40.2678C14.2484 40.6109 14.3214 40.9139 14.4682 41.1763C14.6147 41.4387 14.8192 41.6419 15.0814 41.785C15.3435 41.9282 15.6397 42 15.9703 42C16.3794 42 16.7241 41.8961 17.0049 41.6881C17.2858 41.48 17.4758 41.2148 17.5749 40.8916H16.6395C16.503 41.1625 16.274 41.2975 15.9517 41.2975C15.7285 41.2975 15.5406 41.229 15.3879 41.0915C15.2353 40.954 15.1486 40.7642 15.1278 40.5221ZM16.5217 39.4287C16.6785 39.5601 16.7589 39.7345 16.7631 39.9527H15.1336C15.1668 39.7264 15.2564 39.55 15.4033 39.4226C15.5501 39.2957 15.7306 39.232 15.9455 39.232C16.1728 39.232 16.3649 39.2977 16.5217 39.4287Z" fill="#57A348"/>
<path fill-rule="evenodd" clip-rule="evenodd" d="M18.1847 39.3533C18.3228 39.0909 18.5108 38.8889 18.7485 38.7478C18.9857 38.6066 19.2512 38.5357 19.5445 38.5357C19.8005 38.5357 20.0245 38.5864 20.2165 38.6869C20.4086 38.7879 20.5625 38.9153 20.6783 39.0686V38.59H21.5519V41.9452H20.6783V41.4545C20.5667 41.6118 20.4128 41.742 20.2165 41.845C20.0203 41.9481 19.7943 41.9996 19.5383 41.9996C19.2492 41.9996 18.9857 41.927 18.7485 41.7814C18.5108 41.6362 18.3228 41.431 18.1847 41.1665C18.0462 40.9021 17.9773 40.5983 17.9773 40.2548C17.9773 39.9113 18.0466 39.6149 18.1847 39.3525V39.3533ZM20.5542 39.7378C20.4717 39.5905 20.3601 39.4774 20.2199 39.3987C20.0792 39.32 19.9287 39.2807 19.7677 39.2807C19.6067 39.2807 19.4578 39.3192 19.3218 39.3959C19.1853 39.4725 19.0749 39.5849 18.9903 39.7321C18.9057 39.8797 18.8634 40.0541 18.8634 40.2561C18.8634 40.458 18.9057 40.6344 18.9903 40.7861C19.0749 40.9374 19.1865 41.0538 19.3247 41.1345C19.4628 41.2152 19.6105 41.2558 19.7677 41.2558C19.9249 41.2558 20.0796 41.2164 20.2199 41.1377C20.3601 41.0591 20.4717 40.9459 20.5542 40.7987C20.6368 40.6515 20.6783 40.4747 20.6783 40.2686C20.6783 40.0626 20.6368 39.8862 20.5542 39.7386V39.7378Z" fill="#57A348"/>
<path d="M24.2528 41.6333C23.9264 41.3973 23.7509 41.0591 23.7264 40.619H25.0211C25.0336 40.7683 25.0788 40.8774 25.1576 40.9459C25.236 41.0145 25.3372 41.0489 25.4613 41.0489C25.5728 41.0489 25.6645 41.0218 25.7371 40.967C25.8093 40.9127 25.8454 40.8368 25.8454 40.7399C25.8454 40.615 25.7856 40.518 25.6658 40.4491C25.5459 40.3806 25.3517 40.3039 25.0833 40.2192C24.7983 40.1263 24.5681 40.0367 24.3926 39.9495C24.2172 39.8627 24.0645 39.7353 23.9343 39.5678C23.804 39.4003 23.7393 39.1813 23.7393 38.9108C23.7393 38.6403 23.8094 38.401 23.95 38.2051C24.0902 38.0093 24.2844 37.8608 24.5324 37.7598C24.7801 37.6589 25.0609 37.6086 25.375 37.6086C25.8831 37.6086 26.2888 37.7246 26.5925 37.9569C26.8961 38.1893 27.0579 38.515 27.0787 38.9352H25.7591C25.7549 38.8058 25.7147 38.7093 25.6384 38.6444C25.5621 38.5799 25.4637 38.5474 25.3443 38.5474C25.2534 38.5474 25.1792 38.5738 25.1211 38.6261C25.063 38.6788 25.0344 38.7535 25.0344 38.8504C25.0344 38.9311 25.0663 39.0009 25.1302 39.0593C25.1941 39.1177 25.2737 39.1683 25.3687 39.2105C25.4637 39.2531 25.604 39.3066 25.7898 39.3711C26.0665 39.464 26.2946 39.5557 26.4743 39.6465C26.6539 39.7373 26.8086 39.8647 26.9389 40.0281C27.0691 40.1916 27.1338 40.3988 27.1338 40.649C27.1338 40.8993 27.0687 41.1317 26.9389 41.3336C26.8086 41.5356 26.6207 41.695 26.3751 41.8122C26.1295 41.9294 25.8392 41.9878 25.5048 41.9878C24.9966 41.9878 24.5797 41.8698 24.2533 41.6333H24.2528Z" fill="#57A348"/>
<path d="M31.1851 39.9649C31.1851 39.5208 31.0681 39.1684 30.835 38.908H30.8354C30.6022 38.6476 30.2874 38.5174 29.8908 38.5174C29.651 38.5174 29.4395 38.5649 29.2557 38.6598C29.0719 38.7547 28.9263 38.8788 28.8189 39.0321V37.4634H27.6047V41.9452H28.8189V40.1222C28.8189 39.9284 28.8703 39.7759 28.9736 39.6648C29.0765 39.5536 29.2271 39.4981 29.4009 39.4981C29.5747 39.4981 29.7128 39.5536 29.8161 39.6648C29.919 39.7759 29.9709 39.9284 29.9709 40.1222V41.9452H31.1851V39.9649Z" fill="#57A348"/>
<path fill-rule="evenodd" clip-rule="evenodd" d="M31.758 39.3229C31.8882 39.0605 32.0658 38.8585 32.2906 38.7174C32.5159 38.5762 32.7664 38.5053 33.0431 38.5053C33.2825 38.5053 33.489 38.5519 33.6624 38.6444C33.8358 38.7372 33.9702 38.8626 34.0652 39.0199V38.5474H35.2795V41.9452H34.0652V41.4727C33.9702 41.6301 33.835 41.7554 33.6595 41.8483C33.4841 41.9412 33.2787 41.9874 33.0431 41.9874C32.7664 41.9874 32.5154 41.9168 32.2906 41.7753C32.0654 41.6341 31.8878 41.431 31.758 41.1665C31.6277 40.9021 31.563 40.5943 31.563 40.2431C31.563 39.8919 31.6281 39.5849 31.758 39.3225V39.3229ZM33.8827 39.7288C33.7608 39.6039 33.611 39.5411 33.4335 39.5411C33.2559 39.5411 33.1008 39.6027 32.9813 39.7256C32.8614 39.8489 32.8017 40.0212 32.8017 40.2435C32.8017 40.4657 32.8614 40.634 32.9813 40.7614C33.1012 40.8887 33.2518 40.952 33.4335 40.952C33.6152 40.952 33.7608 40.8895 33.8827 40.7642C34.0047 40.6393 34.0657 40.4653 34.0657 40.2435C34.0657 40.0216 34.0047 39.8537 33.8827 39.7288Z" fill="#57A348"/>
<path d="M38.216 38.5174C37.9933 38.5174 37.7846 38.5738 37.5905 38.687C37.3963 38.8001 37.2312 38.9534 37.0948 39.1473V38.5478H35.8805V41.9452H37.0948V40.4613C37.0948 40.211 37.1586 40.0354 37.2868 39.9345C37.415 39.8339 37.6112 39.7832 37.8755 39.7832H38.216V38.5174Z" fill="#57A348"/>
<path fill-rule="evenodd" clip-rule="evenodd" d="M41.8591 40.4856H39.5609C39.5734 40.6714 39.626 40.8096 39.719 40.9005C39.8119 40.9913 39.9305 41.0368 40.0753 41.0368C40.2777 41.0368 40.4221 40.9479 40.5088 40.7703H41.8035C41.75 41.0047 41.6454 41.2136 41.4907 41.3973C41.336 41.581 41.1406 41.7254 40.9054 41.8304C40.6702 41.9355 40.4097 41.9878 40.1247 41.9878C39.782 41.9878 39.4771 41.9172 39.2108 41.7757C38.9445 41.6346 38.7358 41.4326 38.5852 41.1702C38.4342 40.9078 38.3592 40.5988 38.3592 40.2435C38.3592 39.8882 38.4334 39.5804 38.5823 39.32C38.7308 39.0597 38.9387 38.8589 39.205 38.7174C39.4713 38.5762 39.7779 38.5053 40.1251 38.5053C40.4723 38.5053 40.7714 38.5738 41.0356 38.7113C41.2999 38.8488 41.5065 39.0455 41.655 39.3018C41.8035 39.5581 41.8782 39.8598 41.8782 40.2074C41.8782 40.3003 41.8719 40.3931 41.8595 40.486L41.8591 40.4856ZM40.6386 39.9101C40.6386 39.7649 40.5893 39.6506 40.4901 39.5678C40.391 39.4851 40.267 39.4437 40.1184 39.4437C39.9699 39.4437 39.848 39.4831 39.753 39.5617C39.658 39.6404 39.5962 39.7564 39.5671 39.9101H40.6386Z" fill="#57A348"/>
</svg>
