<svg width="328" height="533" viewBox="0 0 328 533" fill="none" xmlns="http://www.w3.org/2000/svg">
<path d="M227.781 144.527H239.828C239.828 116.333 231.59 91.4445 213.253 76.4766C195.183 61.7257 170.923 60.7708 151.643 65.4769L154.304 73.5004C172.988 70.1211 188.453 73.1779 201.201 81.3439C222.422 94.9292 227.564 120.022 227.775 144.533L227.781 144.527ZM192.231 211.461C191.524 212.409 191.691 213.743 192.609 214.487L203.887 223.738C204.705 224.414 205.878 224.414 206.697 223.738L217.98 214.487C218.83 213.786 219.035 212.577 218.483 211.647C218.445 211.585 212.248 203.196 212.248 203.196L222.434 194.273L218.365 190.671C217.149 189.455 215.499 188.773 213.781 188.773C213.781 193.461 209.978 197.256 205.288 197.256C201.734 197.256 196.802 194.54 196.802 188.773C195.283 188.755 193.813 189.3 192.671 190.305L188.149 194.273L198.322 203.196L192.225 211.461H192.231ZM262.004 280.143C266.154 278.922 271.278 264.518 276.898 255C282.512 245.483 280.074 236.938 279.342 233.094C278.61 229.25 270.31 227.415 266.644 231.563C262.978 235.711 262.004 249.873 262.004 249.873C261.086 258.758 258.338 267.693 256.626 271.841C254.92 275.989 257.854 281.359 262.004 280.137V280.143ZM240.132 389.941L239.27 365.251L254.318 345.441C254.318 345.441 254.722 343.686 254.765 343.463L263.164 333.821C278.523 316.174 279.938 296.891 280.031 295.446L281.656 300.493C281.079 295.173 288.231 276.349 289.41 272.349C295.353 252.13 295.979 237.738 294.596 227.743L305.731 230.837C276.749 181.227 325.209 147.094 325.209 147.094L312.442 146.715L306.469 123.092L307.796 121.517L300.253 90.192C300.253 90.192 285.57 108.905 258.679 105.024C259.337 105.042 278.846 106.648 295.235 92.7528L299.093 89.4852L286.215 65.9792C286.215 65.9792 270.143 80.7673 249.53 75.6395C250.826 75.7449 252.067 75.7945 253.233 75.7945C271.377 75.7945 285.198 63.2944 285.198 63.2944L269.119 44.0977C269.119 44.0977 261.105 51.0485 252.569 51.0485C246.596 51.0485 240.448 48.5249 234.543 43.7133L241.211 37.6368C241.211 37.6368 220.71 3.36685 176.413 3.36685C157.431 3.36685 141.557 7.34755 129.181 15.1787L118.897 0C118.897 0 84.6302 16.5615 84.748 59.4935C46.6418 41.4315 14.2301 64.8321 14.2301 64.8321V85.5293C9.93751 88.7225 7.13367 91.7297 7.13367 91.7297V111.962C6.64982 112.483 3.83357 115.657 3.83357 115.657C3.83357 115.657 5.27271 125.088 10.8556 134.594C19.2733 148.923 20.8861 179.832 20.8861 179.832L19.8192 182.622C19.8192 182.622 33.9067 206.817 29.825 229.039C27.1328 243.703 20.0797 255.825 20.0797 255.825C20.0797 255.825 28.7766 260.054 34.9612 276.076C45.8664 304.313 56.5359 316.819 56.5359 316.819V338.626L62.6771 342.21L64.079 359.795L78.979 372.847V396.464L0 441.697L13.2252 460.608L42.9943 446.378L58.4589 502.046C58.4589 502.046 73.5451 513.579 100.473 523.227L83.7431 455.654C86.2244 458.128 88.8669 460.54 91.677 462.834L114.734 527.195C114.734 527.195 178.181 545.616 243.264 516.828C300.532 491.499 328 440.252 328 440.252L240.138 389.941H240.132ZM267.984 52.4064L276.166 62.1721C262.004 72.4215 238.314 74.7404 216.851 51.4577L225.387 43.6699C240.876 59.9089 257.116 59.9089 267.984 52.4126V52.4064ZM117.153 8.48224L123.592 17.9814C96.8815 35.0761 95.7091 77.4749 118.469 95.8716C113.487 98.8913 108.748 102.612 108.748 102.612L108.692 102.562C81.8139 77.295 86.1127 28.3423 117.153 8.48224ZM128.443 184.607C128.462 184.848 128.481 185.096 128.481 185.344C128.481 190.032 124.684 193.827 119.995 193.827C115.305 193.827 111.509 190.032 111.509 185.344C111.509 185.127 111.527 184.917 111.54 184.706C111.112 184.749 105.169 185.431 97.173 191.78H90.089L107.917 174.45H130.385L125.255 162L102.545 160.536L91.1063 164.083L104.741 151.26L145.037 153.455L154.317 183.726L135.025 205.694H118.909V200.815L132.829 199.841L139.913 191.055C139.913 191.055 134.367 184.607 128.443 184.607ZM20.4333 68.199C20.4333 68.199 51.3562 48.128 85.6785 66.9279C85.6785 66.9279 86.3608 72.3099 86.5035 76.4766C86.5035 76.4766 54.3214 59.4687 20.4395 81.3377V68.199H20.4333ZM13.3369 94.3153C13.3369 94.3153 43.534 64.3981 87.13 82.0508L92.7812 93.3418C92.7812 93.3418 55.1588 71.9998 13.3369 104.962V94.3153ZM70.0589 356.794L68.5949 338.484L62.7329 335.067V296.01L58.583 309.193C53.211 301.994 46.2386 288.074 40.7426 273.844C35.2465 259.614 28.057 254.027 28.057 254.027C28.057 254.027 33.5593 243.027 35.9165 230.155C36.5554 226.646 36.971 223 36.971 219.397C36.971 202.582 26.5931 182.263 26.5931 182.263L35.383 159.321L26.5931 173.353C26.5931 173.353 24.391 145.407 16.2027 131.456C13.0391 126.062 11.3891 121.263 10.5578 117.418C23.6218 102.655 42.7214 93.3481 63.9921 93.3481C79.5994 93.3481 94.0342 98.358 105.777 106.859C93.3022 119.582 79.0783 142.53 75.6852 151.267C71.3801 162.359 69.271 173.346 66.7215 197.169C65.332 210.103 65.8655 224.965 66.6347 235.847C67.2922 245.005 68.1111 251.342 68.1111 251.342L65.6732 251.59L62.8632 213.569C58.8373 211.92 49.7992 206.922 45.6121 218.108C44.0985 222.169 44.4583 227.675 45.6803 233.516C47.8266 243.771 52.6217 255.069 54.5447 261.461C57.5594 271.494 66.8952 270.985 66.8952 270.985L73.1232 304.3L78.9853 313.093L73.0054 307.717C74.246 310.197 77.6454 314.314 77.6454 314.314L78.9915 364.588L70.0775 356.775L70.0589 356.794ZM91.4661 512.686C81.7953 508.593 72.5401 503.707 63.7936 498.102L46.9768 437.598L15.1296 452.82C12.9275 449.881 10.8184 446.868 8.79613 443.792L50.5932 419.852C52.9008 424.137 55.4007 428.285 58.0929 432.278C63.7068 440.636 70.1271 448.319 77.2297 455.201L91.4599 512.68L91.4661 512.686ZM119.442 521.962L102.464 474.571C121.887 486.123 144.218 492.702 167.982 492.702C191.747 492.702 213.88 486.185 233.234 474.726L228.333 467.143C210.859 477.697 190.37 483.773 168.466 483.773C141.47 483.773 116.626 474.547 96.9249 459.083C76.1814 442.8 63.9549 418.383 61.8396 413.422L78.154 404.085C80.7035 409.2 95.4299 439.092 133.096 453.322L179.353 432.464L177.151 415.258L140.155 401.71L135.403 390.357L174.589 392.552L151.513 355.938C151.513 355.938 160.812 356.366 172.027 353.011C172.027 353.011 141.414 357.581 121.918 344.132L81.2184 315.647L114.604 334.1C125.484 339.984 137.612 340.486 139.82 340.486C152.834 340.486 165.421 335.681 175.147 326.994C178.094 324.365 178.385 319.857 175.817 316.863L166.165 305.634C166.165 305.634 154.801 303.315 146.501 308.194L135.763 290.622L168.485 290.374C168.485 290.374 174.837 290.126 174.837 284.521C174.837 278.916 169.223 278.903 169.223 278.903H130.639L125.999 283.547L117.941 276.448L117.687 276.225L125.503 268.412L130.881 272.678L149.683 265.479L161.401 269.875L169.217 265.479V260.37L161.159 260.599L159.931 247.194C159.931 247.194 154.317 248.174 152.611 247.194C150.899 246.214 148.945 244.026 142.599 244.026C136.253 244.026 133.809 237.608 133.809 237.608L134.541 229.622C134.541 229.622 138.443 235.723 140.887 235.971C143.331 236.219 146.501 234.589 153.349 237.478C160.185 240.367 167.753 235.24 167.753 226.46V195.705L163.355 188.135L166.531 160.071L194.185 153.84C160.396 122.744 176.797 92.5792 176.822 92.5296C172.263 91.1283 165.421 90.6943 158.138 90.7253C158.138 90.7253 126.39 92.5172 126.192 92.5296H126.185C98.4633 76.489 100.653 9.57972 176.425 9.57972C201.691 9.57972 219.897 20.567 232.781 36.9486L225.399 43.6761C225.12 43.4343 208.7 25.1801 183.745 25.1801C158.789 25.1801 143.833 41.8966 143.083 42.5848L147.766 47.7374C147.921 47.6072 160.576 34.0592 181.4 34.0592C202.224 34.0592 216.156 50.85 216.857 51.4577L210.729 57.0505C210.729 57.0505 246.515 100.634 284.069 74.9637L291.227 88.0281C276.172 100.789 255.112 101.582 237.638 93.9991C239.834 98.0976 241.925 102.587 244.511 107.417C254.976 112.489 280.558 115.881 296.643 101.669L301.035 119.917C296.171 125.671 287.369 130.421 276.172 129.311C284.361 133.428 294.503 134.302 301.754 129.745L305.458 144.384C293.578 153.97 278.108 146.889 276.172 145.785C284.702 154.609 296.959 158.199 307.132 155.068C274.609 192.686 295.216 221.561 295.216 221.561C292.201 221.127 289.367 219.602 283.988 214.976C284.578 216.117 295.272 230.409 283.455 270.601C280.657 280.112 278.616 285.203 279.094 289.624C278.914 288.861 275.93 276.001 276.166 268.183C276.166 268.183 273.474 277.211 274.578 289.661C274.578 289.661 272.649 313.483 258.487 329.747C259.808 319.175 256.13 307.99 256.13 307.99L249.182 314.116C249.182 314.116 252.78 324.253 248.568 342.756L236.267 358.951L235.386 338.725L232.21 340.927L234.059 393.606L319.241 442.385C249.834 549.926 133.716 525.44 119.449 521.962H119.442ZM252.78 239.14L247.414 237.478C247.414 237.478 244.108 267.389 238.382 292.135C230.48 326.269 190.823 340.728 190.823 340.728L193.205 346.222C193.205 346.222 233.308 332.754 242.768 299.489C247.005 284.595 251.353 264.01 252.78 239.14ZM117.929 59.9089C117.929 67.8021 121.372 75.1063 126.03 81.4804C128.294 81.1951 130.987 80.9161 134.07 80.7115C128.561 74.8583 125.565 67.5169 125.565 59.7291C125.565 48.7667 131.626 38.6227 141.762 32.5897L138.914 26.476C125.757 32.6579 117.929 46.5717 117.929 59.9151V59.9089ZM208.285 164.691L202.913 172.379H219.76L231.726 182.021L236.608 177.141L226.354 164.939L208.278 164.691H208.285Z" fill="#111111"/>
</svg>
