<svg width="52" height="52" viewBox="0 0 52 52" fill="none" xmlns="http://www.w3.org/2000/svg">
<rect width="52" height="52" fill="white"/>
<path d="M31.0535 11.3803L15.8676 15.4664C15.8064 15.5694 15.7452 15.6723 15.6873 15.7785C15.6873 15.7785 15.6873 15.7785 15.6873 15.7817C17.2458 16.6279 18.9395 17.0976 20.643 17.1813C20.6526 17.1684 20.6623 17.1588 20.6719 17.1459C20.6752 17.1427 20.6784 17.1363 20.6816 17.133C20.7041 17.1073 20.7299 17.0816 20.7524 17.0526C20.8007 16.9979 20.8458 16.9432 20.8973 16.8917C20.9263 16.8596 20.9585 16.8306 20.9875 16.7984C21.039 16.747 21.0873 16.6955 21.1388 16.644C21.171 16.615 21.2 16.5861 21.2322 16.5571C21.287 16.5089 21.3385 16.4574 21.3932 16.4123C21.4254 16.3834 21.4576 16.3576 21.4898 16.3319C21.5446 16.2869 21.6025 16.2386 21.6573 16.1936C21.6927 16.1678 21.7281 16.1421 21.7635 16.1163C21.8215 16.0745 21.8795 16.0295 21.9374 15.9909C21.9728 15.9651 22.0115 15.9426 22.0469 15.9169C22.1049 15.8782 22.166 15.8364 22.2272 15.801C22.2659 15.7785 22.3045 15.756 22.3432 15.7335C22.4043 15.6981 22.4655 15.6595 22.5267 15.6273C22.5686 15.6048 22.6104 15.5855 22.6523 15.5629C22.7135 15.5308 22.7746 15.4986 22.8358 15.4696C22.8809 15.4471 22.926 15.4278 22.9711 15.4085C23.0322 15.3795 23.0934 15.3538 23.1546 15.3281C23.2029 15.3088 23.2512 15.2927 23.2995 15.2734C23.3607 15.2508 23.4219 15.2251 23.4831 15.2026C23.5346 15.1833 23.5861 15.1704 23.6376 15.1543C23.6988 15.135 23.76 15.1157 23.8212 15.0964C23.8759 15.0803 23.9306 15.0675 23.9854 15.0546C24.0466 15.0385 24.1045 15.0224 24.1657 15.0095C24.2237 14.9967 24.2849 14.987 24.3428 14.9742C24.4008 14.9613 24.4587 14.9484 24.5167 14.9388C24.5811 14.9291 24.6487 14.9195 24.7163 14.9098C24.7711 14.9034 24.8226 14.8937 24.8774 14.8873C24.9514 14.8776 25.0287 14.8744 25.106 14.868C25.1511 14.8648 25.1961 14.8583 25.2444 14.8551C25.3668 14.8487 25.4892 14.8455 25.6147 14.8455C25.779 14.8455 25.9432 14.8551 26.1042 14.8648C26.1428 14.8648 26.1847 14.8712 26.2233 14.8744C26.3811 14.8905 26.5389 14.9066 26.6935 14.9355C26.6935 14.9355 26.6967 14.9355 26.6999 14.9355C26.8577 14.9613 27.0155 14.9967 27.1668 15.0353C27.2022 15.0449 27.2377 15.0546 27.2731 15.0642C27.4212 15.1028 27.5661 15.1479 27.711 15.1962C27.7142 15.1962 27.7207 15.1962 27.7239 15.1994C27.7239 15.1994 27.7239 15.1994 27.7271 15.1994C27.9525 15.2766 28.1715 15.3667 28.384 15.4696C28.3711 15.3474 28.3647 15.2219 28.3647 15.0964C28.3647 15.0063 28.3679 14.9162 28.3744 14.8261C28.3744 14.8133 28.3776 14.8036 28.3776 14.7908C28.3808 14.7393 28.3905 14.6878 28.3969 14.6363C28.4033 14.5784 28.413 14.5205 28.4227 14.4658C28.4323 14.4143 28.4452 14.3661 28.4581 14.3146C28.471 14.2599 28.4838 14.2052 28.4999 14.1505C28.5128 14.1022 28.5321 14.054 28.5482 14.0057C28.5676 13.9542 28.5837 13.8995 28.6062 13.8481C28.6255 13.7998 28.6448 13.7547 28.6674 13.7097C28.6899 13.6582 28.7157 13.61 28.7382 13.5585C28.7608 13.5134 28.7865 13.4716 28.8123 13.4266C28.8413 13.3783 28.867 13.3333 28.8992 13.285C28.925 13.2432 28.954 13.2014 28.9829 13.1595C29.0151 13.1145 29.0473 13.0694 29.0828 13.0276C29.115 12.989 29.144 12.9504 29.1762 12.9118C29.2116 12.87 29.2502 12.8281 29.2889 12.7895C29.3243 12.7541 29.3565 12.7187 29.3919 12.6833C29.4305 12.6447 29.4724 12.6093 29.5143 12.5707C29.5497 12.5386 29.5883 12.5064 29.627 12.4774C29.672 12.442 29.7171 12.4099 29.7622 12.3777C29.8008 12.3487 29.8395 12.3198 29.8813 12.294C29.9297 12.2619 29.978 12.2329 30.0295 12.204C30.0713 12.1814 30.1132 12.1557 30.1551 12.1332C30.2066 12.1042 30.2613 12.0817 30.3128 12.0559C30.3547 12.0366 30.3966 12.0141 30.4416 11.998C30.4964 11.9755 30.5543 11.9562 30.6123 11.9369C30.6542 11.9208 30.6992 11.9047 30.7411 11.8919C30.8023 11.8726 30.8667 11.8597 30.9279 11.8436C30.9697 11.8339 31.0116 11.8211 31.0567 11.8114C31.1275 11.7986 31.1984 11.7889 31.2724 11.7793C31.3078 11.7728 31.3465 11.7664 31.3819 11.7632C31.4817 11.7535 31.5815 11.7503 31.6814 11.7471C31.4785 11.6184 31.2692 11.4929 31.0567 11.3771L31.0535 11.3803Z" fill="#25C16F"/>
<path d="M25.6114 10C21.4865 10 17.8703 12.1878 15.8674 15.4664L31.0533 11.3803C29.4368 10.5019 27.5821 10.0032 25.6114 10.0032V10Z" fill="#8BDF55"/>
<path d="M20.9552 25.7427C20.9552 25.7427 20.9391 25.7234 20.9295 25.7137C20.8103 25.5882 20.6944 25.4563 20.5881 25.3212C20.572 25.2987 20.5527 25.2762 20.5366 25.2568C20.4304 25.1185 20.3273 24.9769 20.2307 24.8321C20.2146 24.8096 20.2017 24.7871 20.1856 24.7646C20.089 24.6166 20.0021 24.4654 19.9184 24.3077C19.9055 24.2852 19.8958 24.2627 19.8829 24.2401C19.7992 24.0825 19.7252 23.9184 19.6543 23.7543C19.6447 23.7318 19.6382 23.7125 19.6286 23.69C19.5609 23.5194 19.4965 23.3489 19.445 23.172C19.4386 23.1527 19.4354 23.1334 19.4289 23.114C19.3742 22.9339 19.3291 22.7505 19.2904 22.5639C19.2904 22.5478 19.284 22.5349 19.2808 22.5188C19.2421 22.3258 19.2132 22.1327 19.1938 21.9333C19.1938 21.9236 19.1938 21.9139 19.1938 21.9075C19.1745 21.7016 19.1649 21.4957 19.1649 21.2866C19.1649 21.0774 19.1745 20.8876 19.1938 20.6913C19.1938 20.6849 19.1938 20.6785 19.1938 20.6752C19.2003 20.6205 19.2099 20.5691 19.2164 20.5144C19.2325 20.3792 19.2486 20.2441 19.2743 20.1122C19.2743 20.1122 19.2743 20.1058 19.2743 20.1025L14.3154 22.9821C14.3412 23.1655 14.3702 23.3521 14.4056 23.5323C14.7244 23.7736 15.0432 23.9892 15.3587 24.1694C17.075 25.1571 18.9813 25.7041 20.9552 25.7427Z" fill="#FFA800"/>
<path d="M15.6839 15.7817C14.7404 17.4418 14.1995 19.3562 14.1995 21.4025C14.1995 21.9173 14.2381 22.4224 14.3025 22.9179C14.3025 22.9372 14.3089 22.9597 14.3089 22.979L19.2679 20.0994C19.2679 20.0994 19.2711 20.0801 19.2743 20.0705C19.3033 19.9193 19.3387 19.7713 19.3773 19.6233C19.3902 19.575 19.4063 19.5267 19.4192 19.4785C19.4546 19.3594 19.4933 19.2404 19.5351 19.1213C19.5512 19.0763 19.5673 19.028 19.5834 18.983C19.6414 18.8286 19.7058 18.6741 19.7766 18.5261C19.7831 18.5133 19.7895 18.5036 19.796 18.4907C19.8636 18.3524 19.9344 18.2172 20.0117 18.0821C20.0342 18.0435 20.0568 18.0049 20.0793 17.9663C20.1502 17.8505 20.221 17.7379 20.2983 17.6252C20.3176 17.5963 20.3337 17.5705 20.353 17.5416C20.4432 17.4161 20.5334 17.2938 20.63 17.178C18.9265 17.0944 17.2328 16.6214 15.6743 15.7784L15.6839 15.7817Z" fill="#FFBB00"/>
<path d="M20.9554 25.7427C18.9815 25.7041 17.0752 25.1571 15.3589 24.1694C15.0401 23.9892 14.7213 23.7737 14.4058 23.5323C14.4058 23.542 14.4058 23.5484 14.409 23.5581C14.7729 25.4531 15.6036 27.1841 16.779 28.6191C17.0108 28.899 17.2555 29.1661 17.5131 29.4202L21.0745 25.8618C21.0359 25.8232 20.9973 25.7845 20.9586 25.7427H20.9554Z" fill="#45A4EC"/>
<path d="M22.7652 31.5695C21.7734 29.8546 21.2292 27.9467 21.1906 25.9744C21.1519 25.9358 21.1101 25.9004 21.0714 25.8618L17.51 29.4203C19.0878 30.9904 21.1229 32.1036 23.3963 32.5476C23.3351 32.4607 23.2772 32.3771 23.2192 32.2902C23.055 32.0489 22.9036 31.8108 22.7652 31.5695Z" fill="#3278B2"/>
<path d="M26.8059 27.6154C26.6642 27.6411 26.5225 27.6604 26.3776 27.6765C26.3228 27.6829 26.2713 27.6926 26.2166 27.699C26.0169 27.7183 25.8173 27.728 25.6112 27.728C25.4051 27.728 25.2119 27.7183 25.0187 27.699C25.0058 27.699 24.9962 27.699 24.9833 27.699C24.9801 27.699 24.9736 27.699 24.9704 27.699C24.7869 27.6797 24.6065 27.654 24.4262 27.6218C24.4101 27.6186 24.3908 27.6154 24.3747 27.6121C24.365 27.6121 24.3586 27.6089 24.3489 27.6057C24.1783 27.5703 24.0108 27.5317 23.8466 27.4834C23.8273 27.477 23.8047 27.4738 23.7854 27.4674C23.7725 27.4641 23.7629 27.4609 23.75 27.4577C23.5922 27.4094 23.4377 27.3548 23.2831 27.2968C23.2606 27.2872 23.238 27.2808 23.2187 27.2711C23.2026 27.2647 23.1897 27.2582 23.1736 27.2518C23.0255 27.1907 22.8838 27.1263 22.7421 27.0555C22.7196 27.0459 22.7003 27.033 22.6777 27.0234C22.6616 27.0137 22.6423 27.0041 22.6262 26.9976C22.491 26.9268 22.3557 26.8496 22.2269 26.7692C22.2076 26.7563 22.1851 26.7434 22.1657 26.7306C22.1464 26.7177 22.1271 26.7048 22.1078 26.6952C21.9822 26.6115 21.8566 26.5279 21.7375 26.4346C21.7181 26.4217 21.702 26.4056 21.6827 26.3927C21.6634 26.3767 21.6441 26.3606 21.6215 26.3445C21.5056 26.2512 21.3929 26.1579 21.2834 26.0581C21.2641 26.042 21.2448 26.0227 21.2287 26.0067C21.219 25.997 21.2094 25.9906 21.1997 25.9841C21.2383 27.9596 21.7825 29.8643 22.7743 31.5792C22.9128 31.8205 23.0673 32.0586 23.2284 32.2999C23.2863 32.3868 23.3475 32.4705 23.4055 32.5573C23.4505 32.567 23.4924 32.5734 23.5375 32.5798C23.6727 32.6056 23.808 32.6281 23.9464 32.6506C23.969 32.6506 23.9883 32.6571 24.0108 32.6603L26.9218 27.6121C27.057 27.5832 27.189 27.551 27.3211 27.5156C27.1536 27.5607 26.9862 27.5993 26.8155 27.6314L26.8059 27.6154Z" fill="#EE5A24"/>
<path d="M29.72 26.2479C29.72 26.2479 29.7168 26.2479 29.7136 26.2511C29.5977 26.3477 29.4785 26.4378 29.3562 26.5246C29.3175 26.5536 29.2789 26.5793 29.2402 26.6051C29.134 26.6791 29.0245 26.7466 28.9118 26.8142C28.8796 26.8335 28.8506 26.8528 28.8184 26.8721C28.6767 26.9525 28.5318 27.0298 28.3869 27.1005C28.3547 27.1166 28.3193 27.1295 28.2871 27.1456C28.168 27.2003 28.0456 27.2518 27.92 27.3C27.8781 27.3161 27.8331 27.3322 27.7912 27.3483C27.6399 27.403 27.4853 27.4545 27.3275 27.4963C27.3211 27.4963 27.3179 27.4963 27.3146 27.4995C27.1826 27.5349 27.0506 27.5671 26.9153 27.596L24.0044 32.6442C24.5293 32.7182 25.067 32.76 25.6144 32.76C27.6173 32.76 29.4978 32.2484 31.1369 31.3475C30.2513 29.7517 29.7651 28.0207 29.691 26.2769C29.7039 26.2672 29.7136 26.2576 29.7265 26.2479H29.72Z" fill="#D33C4E"/>
<path d="M35.0591 15.0096C35.0591 15.0386 35.0623 15.0643 35.0623 15.0933C35.0623 16.7406 33.8741 18.1048 32.3059 18.3847C32.1159 18.4105 31.9195 18.4233 31.7199 18.4233C31.5878 18.4233 31.459 18.4169 31.3334 18.4072C31.4848 18.6775 31.6168 18.9542 31.7263 19.2438C31.942 19.8873 32.058 20.5726 32.058 21.2868C32.058 23.2816 31.1499 25.0673 29.7234 26.2481C29.7105 26.2578 29.7009 26.2674 29.688 26.2771C29.762 28.0209 30.2483 29.7519 31.1338 31.3477C31.1467 31.3413 31.1596 31.3316 31.1757 31.3252C31.1821 31.322 31.1918 31.3155 31.1982 31.3123C31.2626 31.2769 31.3238 31.2383 31.3882 31.2029L35.5067 15.7271C35.365 15.4826 35.2201 15.2413 35.0623 15.0096H35.0591Z" fill="#9B65C3"/>
<path d="M35.6773 16.0327C35.6226 15.9297 35.5646 15.8268 35.5067 15.7271L31.3882 31.2028C31.3882 31.2028 31.4075 31.1932 31.4139 31.1868C32.5667 30.5111 33.5939 29.6392 34.444 28.616C36.0541 26.6502 37.0201 24.1374 37.0201 21.3994C37.0201 19.456 36.5339 17.6285 35.6773 16.0295V16.0327Z" fill="#BF63C6"/>
<path d="M29.4886 15.1833C29.5369 15.8074 29.8299 16.3608 30.2743 16.7469L31.9004 15.1318L33.5265 13.5166C33.3945 13.359 33.2367 13.2239 33.0661 13.108L29.4854 15.1801L29.4886 15.1833Z" fill="#FFA800"/>
<path d="M30.2742 16.7468C30.6767 17.0943 31.2016 17.3067 31.7779 17.3067C31.7844 17.3067 31.794 17.3067 31.8005 17.3067L33.7905 13.9059C33.7164 13.7675 33.6263 13.6388 33.5264 13.5198L31.9003 15.1349L30.2742 16.7501V16.7468Z" fill="#EE5A24"/>
<path d="M31.7779 12.7123C30.506 12.7123 29.4788 13.7386 29.4788 15.0095C29.4788 15.0674 29.4852 15.1253 29.4884 15.1833L33.0691 13.1112C32.7021 12.8603 32.2577 12.7123 31.7779 12.7123Z" fill="#25C16F"/>
<path d="M34.0769 15.0096C34.0769 14.6074 33.9738 14.231 33.7903 13.906L31.8003 17.3068C33.0593 17.294 34.0769 16.2708 34.0769 15.0096Z" fill="#9B65C3"/>
<path fill-rule="evenodd" clip-rule="evenodd" d="M28.2828 36.6695C28.8923 36.6695 29.5639 36.9133 29.895 37.433V36.7758H31.0939V41.7269H29.895V41.059C29.5639 41.5894 28.8818 41.8332 28.293 41.8332C27.0222 41.8331 25.916 40.8257 25.916 39.246C25.916 37.6663 27.0113 36.6695 28.2828 36.6695ZM28.4791 37.8137C27.7348 37.8137 27.1253 38.4073 27.1253 39.2347C27.1253 40.0621 27.7348 40.6769 28.4791 40.6769C29.2233 40.6769 29.8743 40.1039 29.8743 39.2347C29.8743 38.3655 29.1715 37.8138 28.4791 37.8137Z" fill="black"/>
<path d="M33.7801 41.3305C33.9273 41.3305 34.0442 41.4348 34.0442 41.5802C34.0442 41.7255 33.9273 41.8247 33.7801 41.8247C33.6433 41.8246 33.5265 41.7205 33.5265 41.5802C33.5265 41.4348 33.6433 41.3305 33.7801 41.3305Z" fill="black"/>
<path fill-rule="evenodd" clip-rule="evenodd" d="M37.9778 39.2921C38.6522 39.2922 39.2195 39.7813 39.2195 40.5506C39.2195 41.3199 38.6515 41.8246 37.9778 41.8247C37.304 41.8247 36.7406 41.3199 36.7406 40.5506C36.7406 39.7806 37.3033 39.2921 37.9778 39.2921ZM37.9778 39.6091C37.4809 39.6091 37.0655 39.9784 37.0655 40.5506C37.0655 41.1228 37.476 41.5079 37.9778 41.5079C38.4794 41.5079 38.8954 41.1277 38.8954 40.5506C38.8954 39.9785 38.4746 39.6092 37.9778 39.6091Z" fill="black"/>
<path d="M35.6508 39.2914C35.9901 39.2914 36.2895 39.4211 36.5023 39.6246L36.2998 39.8537C36.1374 39.7026 35.9142 39.6091 35.6612 39.6091C35.1443 39.6091 34.7236 39.9834 34.7235 40.5555C34.7235 41.1277 35.1443 41.5021 35.6612 41.5021C35.9148 41.5021 36.1381 41.4135 36.2998 41.2632L36.5023 41.4865C36.2895 41.6942 35.9901 41.8191 35.6508 41.8191C34.9974 41.8191 34.4349 41.3552 34.4004 40.6262L34.3986 40.5555C34.3987 39.7856 34.9764 39.2914 35.6508 39.2914Z" fill="black"/>
<path d="M13.1989 38.4392L14.7905 36.7141H16.2991L13.9529 39.2219L16.8257 41.7568H15.1829L13.1989 39.9968V41.7568H12V36.7141H13.1989V38.4392Z" fill="black"/>
<path d="M20.817 37.8308C20.8509 37.8818 20.8821 37.9351 20.9125 37.989C20.9249 38.0109 20.9374 38.0336 20.9491 38.0563V38.0555C21.1329 38.4078 21.2374 38.8106 21.2374 39.2389C21.2374 39.8423 21.0299 40.396 20.6844 40.8292C20.5019 41.0546 20.2816 41.2469 20.0342 41.3958C20.0328 41.3972 20.0286 41.3994 20.0286 41.3994C20.0148 41.4072 20.0017 41.4156 19.9879 41.4233C19.9866 41.424 19.9845 41.4256 19.9831 41.4263C19.9798 41.4277 19.977 41.4295 19.9744 41.4309L19.9746 41.4313C19.6229 41.6298 19.2193 41.7425 18.7895 41.7425C18.6731 41.7425 18.5588 41.7334 18.4471 41.7174L18.4454 41.7205C18.4405 41.7198 18.4363 41.7184 18.4315 41.7184C18.4018 41.7134 18.3728 41.7084 18.3438 41.7027C18.3341 41.7013 18.3251 41.6999 18.3154 41.6978C18.303 41.6786 18.2898 41.6603 18.2774 41.6411C18.2429 41.588 18.2098 41.5355 18.18 41.4823C17.9672 41.1044 17.8503 40.6846 17.842 40.2492C17.8441 40.2507 17.8463 40.2521 17.8484 40.2542C17.8518 40.2577 17.8559 40.262 17.86 40.2655C17.8835 40.2875 17.9078 40.3081 17.9327 40.3286C17.9375 40.3322 17.9416 40.3358 17.9458 40.3393C17.9499 40.3422 17.9534 40.3456 17.9575 40.3484C17.9831 40.369 18.01 40.3876 18.037 40.4061C18.0411 40.4082 18.0452 40.411 18.0493 40.4138C18.0535 40.4166 18.0585 40.4195 18.0626 40.4223C18.0902 40.44 18.1192 40.457 18.1482 40.4726C18.1517 40.474 18.1558 40.4762 18.1592 40.4783C18.1641 40.4804 18.1683 40.4833 18.1731 40.4855C18.2035 40.501 18.2339 40.5152 18.2657 40.5286C18.2691 40.53 18.2719 40.5316 18.2753 40.533C18.2794 40.5351 18.2844 40.5364 18.2892 40.5385C18.3224 40.5513 18.3556 40.5633 18.3894 40.574C18.3922 40.5747 18.3942 40.5754 18.397 40.5761C18.4011 40.5775 18.4059 40.5783 18.4101 40.5797C18.4453 40.5903 18.4813 40.5988 18.5179 40.6066C18.5199 40.6073 18.5214 40.608 18.5235 40.608C18.5269 40.6087 18.531 40.6095 18.5344 40.6102C18.5731 40.6173 18.6119 40.623 18.6513 40.6272H18.6617C18.7031 40.6315 18.7446 40.6335 18.7888 40.6335C18.833 40.6335 18.8759 40.6315 18.9187 40.6272C18.9305 40.6258 18.9415 40.6237 18.9533 40.6223C18.9843 40.6187 19.0148 40.6145 19.0452 40.6088L19.0473 40.6124C19.0538 40.6111 19.0602 40.6094 19.0666 40.608L19.0688 40.6044C19.0977 40.5981 19.1261 40.591 19.1544 40.5833C19.1551 40.5826 19.1559 40.5825 19.1573 40.5825C19.1911 40.5733 19.2243 40.5618 19.2567 40.5498C19.2657 40.5463 19.2754 40.5428 19.2843 40.5393C19.3113 40.5287 19.3376 40.5173 19.3632 40.5052C19.3701 40.5017 19.3777 40.4989 19.3846 40.4954C19.4157 40.4798 19.4467 40.4626 19.4771 40.4449C19.484 40.4406 19.4903 40.4364 19.4972 40.4322C19.5214 40.4173 19.545 40.4024 19.5678 40.3861C19.576 40.3804 19.5844 40.3748 19.5926 40.3684C19.6189 40.3493 19.6443 40.3293 19.6692 40.308C19.6699 40.3073 19.6707 40.3075 19.6707 40.3075H19.6713C19.9774 40.0472 20.1724 39.6537 20.1724 39.2141C20.1724 39.0567 20.1474 38.9057 20.1011 38.7639C20.0776 38.7001 20.0493 38.6391 20.0168 38.5796C20.0438 38.5817 20.0714 38.5831 20.0998 38.5831C20.1426 38.5831 20.1849 38.5803 20.2257 38.5746C20.5622 38.5129 20.817 38.2122 20.817 37.8492C20.817 37.8428 20.8165 37.8371 20.8165 37.8308H20.817Z" fill="black"/>
<path d="M23.5801 40.1677L24.851 36.7751H26.1535L24.1177 41.7269H23.0223L21.0072 36.7751H22.2989L23.5801 40.1677Z" fill="black"/>
<path d="M33.0989 41.7269H31.8997V36.7745H33.0989V41.7269Z" fill="black"/>
<path d="M17.4288 38.9554C17.4233 38.9844 17.4199 39.0141 17.4165 39.0439C17.4151 39.0559 17.413 39.0673 17.4117 39.0793V39.0829C17.4075 39.1261 17.4053 39.168 17.4053 39.2141C17.4053 39.2602 17.4075 39.3056 17.4117 39.3509V39.3567C17.4158 39.4006 17.4219 39.4431 17.4302 39.4856C17.4309 39.4891 17.4323 39.492 17.4323 39.4955C17.4406 39.5366 17.4502 39.5771 17.462 39.6169C17.4634 39.6211 17.4641 39.6253 17.4655 39.6295C17.4765 39.6685 17.4903 39.7062 17.5048 39.7438C17.5069 39.7487 17.5083 39.7529 17.5104 39.7578C17.5256 39.794 17.5416 39.8302 17.5596 39.8649C17.5623 39.8699 17.5643 39.8748 17.5671 39.8798C17.585 39.9145 17.6036 39.948 17.6243 39.9806C17.6278 39.9855 17.6307 39.9905 17.6342 39.9954C17.6549 40.0273 17.6769 40.0586 17.6997 40.0891C17.7032 40.0933 17.7073 40.0982 17.7107 40.1031C17.7335 40.1329 17.7584 40.162 17.784 40.1896C17.7859 40.1916 17.7892 40.1955 17.7896 40.196L17.7904 40.1962C17.7986 40.2054 17.807 40.2138 17.8152 40.2223L17.8148 40.2225C17.8231 40.2309 17.8319 40.2387 17.8401 40.2471C17.8484 40.6817 17.9651 41.1023 18.1779 41.4802C18.2076 41.5333 18.2402 41.5858 18.2755 41.639C18.2879 41.6581 18.3004 41.6765 18.3135 41.6956C17.8256 41.5977 17.3887 41.3526 17.0501 41.0066L17.0505 41.006C16.9954 40.9501 16.943 40.8915 16.8934 40.83C16.6411 40.5137 16.4628 40.1323 16.3847 39.7147C16.384 39.7125 16.3839 39.711 16.3839 39.7089C16.4516 39.7621 16.5201 39.8096 16.5885 39.8493L16.5376 39.8182C16.4866 39.7856 16.4353 39.7488 16.3839 39.7089C16.3763 39.6692 16.3702 39.6281 16.3647 39.5877L17.4288 38.9532V38.9554Z" fill="black"/>
<path d="M18.7888 36.7275C19.2117 36.7275 19.6098 36.8375 19.9567 37.0311L19.9575 37.0303C20.0031 37.0558 20.0479 37.0835 20.0915 37.1118C20.0701 37.1125 20.0487 37.1133 20.0273 37.1154C20.0197 37.1161 20.0113 37.1175 20.0037 37.119C19.9878 37.1211 19.9727 37.1233 19.9575 37.1261C19.9478 37.1282 19.9388 37.1309 19.9299 37.133C19.9168 37.1366 19.9029 37.1395 19.8898 37.1437C19.8808 37.1466 19.871 37.1501 19.862 37.1536C19.8496 37.1579 19.8371 37.1621 19.8254 37.1671C19.8157 37.1706 19.8068 37.1757 19.7978 37.1799C19.7867 37.1856 19.7749 37.1906 19.7639 37.197C19.7549 37.2019 19.746 37.2077 19.7371 37.2126C19.726 37.219 19.7156 37.2253 19.7052 37.2324C19.6963 37.2381 19.6879 37.2444 19.6796 37.2508C19.6699 37.2579 19.6603 37.265 19.6507 37.2728C19.6424 37.2792 19.634 37.2863 19.6264 37.2934C19.6174 37.3019 19.6084 37.3097 19.6002 37.3181C19.5926 37.3259 19.5856 37.3337 19.578 37.3415C19.5697 37.35 19.5615 37.3592 19.5539 37.3684C19.547 37.3769 19.5407 37.3855 19.5338 37.394C19.5262 37.4032 19.5193 37.4132 19.5124 37.4231C19.5062 37.4323 19.5 37.4416 19.4945 37.4508C19.4876 37.4614 19.482 37.4713 19.4758 37.4819C19.4703 37.4918 19.4646 37.5011 19.4598 37.511C19.455 37.5223 19.4496 37.533 19.4447 37.5443C19.4399 37.5542 19.4358 37.5642 19.4316 37.5747C19.4268 37.5861 19.4232 37.5983 19.4191 37.6096C19.4156 37.6202 19.4115 37.6308 19.4087 37.6415C19.4052 37.6535 19.4026 37.6657 19.3998 37.6777C19.3971 37.689 19.3942 37.6996 19.3921 37.711C19.39 37.723 19.3881 37.7358 19.3867 37.7486C19.3853 37.7599 19.3832 37.7713 19.3825 37.7826C19.3825 37.7854 19.3817 37.7876 19.3817 37.7904C19.3803 37.8102 19.3798 37.8301 19.3798 37.85C19.3798 37.8776 19.3811 37.9052 19.3838 37.9321C19.3382 37.9094 19.2912 37.8895 19.2429 37.8725H19.2421C19.2414 37.8719 19.2401 37.8719 19.2394 37.8719C19.2083 37.8613 19.1773 37.8513 19.1455 37.8428C19.1379 37.8407 19.1301 37.8386 19.1225 37.8365C19.0901 37.828 19.0563 37.8202 19.0225 37.8145H19.0211C18.988 37.8081 18.9539 37.8046 18.9201 37.8011C18.9118 37.8003 18.9029 37.7989 18.8946 37.7989C18.8601 37.7967 18.8248 37.7947 18.7895 37.7947C18.7626 37.7947 18.7364 37.7953 18.7101 37.7967C18.6998 37.7974 18.6901 37.799 18.6804 37.7997C18.6638 37.8011 18.6471 37.8017 18.6312 37.8038C18.6195 37.8052 18.6085 37.8074 18.5967 37.8088C18.5822 37.8109 18.5677 37.813 18.5539 37.8151C18.5415 37.8172 18.529 37.8202 18.5165 37.823C18.5041 37.8259 18.491 37.8279 18.4785 37.8308C18.4654 37.8336 18.4529 37.8371 18.4398 37.8407C18.4281 37.8435 18.4164 37.8464 18.4047 37.85C18.3916 37.8542 18.3783 37.8584 18.3652 37.8626C18.3541 37.8662 18.343 37.8691 18.332 37.8733C18.3189 37.8783 18.3058 37.884 18.2927 37.889C18.2823 37.8932 18.272 37.8968 18.2616 37.901C18.2485 37.9067 18.2354 37.9123 18.2223 37.9187C18.2126 37.9229 18.2028 37.9272 18.1932 37.9321C18.18 37.9385 18.1669 37.9456 18.1538 37.9527C18.1448 37.9577 18.1358 37.962 18.1268 37.967C18.1137 37.9741 18.1006 37.9825 18.0875 37.9903C18.0792 37.9953 18.0709 38.0002 18.0626 38.0052C18.0495 38.013 18.0363 38.0222 18.0239 38.0307C18.0163 38.0364 18.0079 38.0413 18.0003 38.047C17.9879 38.0555 17.9755 38.0655 17.9631 38.0747C17.9555 38.0804 17.9478 38.086 17.9402 38.0917C17.9284 38.1016 17.9161 38.1123 17.9043 38.1222C17.8974 38.1279 17.8904 38.1336 17.8835 38.14C17.8718 38.1499 17.8607 38.1613 17.849 38.1719C17.8421 38.1783 17.8358 38.1845 17.8289 38.1909C17.8179 38.2022 17.8076 38.2136 17.7965 38.225C17.7903 38.232 17.7833 38.2385 17.7771 38.2456C17.766 38.2569 17.7564 38.2689 17.746 38.281C17.7412 38.2874 17.7356 38.2931 17.7308 38.2988C17.7301 38.2995 17.7295 38.3009 17.7289 38.3016C17.7268 38.3044 17.7246 38.3065 17.7225 38.3093C17.7215 38.3093 17.7204 38.3092 17.7194 38.3091C17.6988 38.3345 17.6796 38.3612 17.6604 38.3887C17.6563 38.3951 17.6528 38.4009 17.6486 38.4073C17.6321 38.4321 17.6168 38.4568 17.6016 38.4824C17.5968 38.4909 17.592 38.4994 17.5871 38.5079C17.5705 38.5377 17.5554 38.5675 17.5409 38.598C17.5395 38.6008 17.538 38.6029 17.5366 38.6057C17.5214 38.6383 17.5076 38.6724 17.4952 38.7065C17.4917 38.7164 17.4882 38.7271 17.4847 38.737C17.4758 38.7632 17.4675 38.7894 17.4599 38.8156C17.4571 38.8262 17.4538 38.8368 17.451 38.8475C17.4427 38.8801 17.435 38.9127 17.4288 38.9461C17.4282 38.948 17.4276 38.9518 17.4275 38.9524L16.3633 39.587C16.3633 39.5827 16.3618 39.5777 16.3618 39.5735C16.3479 39.4643 16.3398 39.3531 16.3398 39.2397C16.3398 38.7889 16.4557 38.367 16.6581 38.0012C16.7544 38.0546 16.8532 38.101 16.9537 38.1408C16.8536 38.101 16.7551 38.0545 16.6591 38.001V38.0002C16.6715 37.9769 16.6845 37.9542 16.6977 37.9315C17.1275 37.2091 17.9036 36.727 18.7888 36.7269V36.7275Z" fill="black"/>
<path d="M20.4875 37.5025C20.5089 37.5287 20.5283 37.5571 20.5442 37.5876C20.5836 37.6592 20.6057 37.7422 20.6057 37.8308C20.6057 38.1087 20.3873 38.3342 20.1171 38.337H20.1123C19.9887 38.337 19.8762 38.2903 19.7899 38.2139L20.4875 37.5025Z" fill="black"/>
<path d="M19.7899 38.2139L19.7895 38.2145V38.2137L19.7899 38.2139Z" fill="black"/>
<path d="M20.1123 37.3245C20.2148 37.3245 20.3098 37.3569 20.3884 37.4118C20.425 37.4373 20.4592 37.4671 20.4875 37.5019L19.7895 38.2137C19.6942 38.1286 19.6314 38.0067 19.621 37.8692L19.6202 37.8684L19.6208 37.8678C19.6201 37.8555 19.6189 37.8431 19.6189 37.8308C19.6189 37.5507 19.8393 37.3245 20.1123 37.3245Z" fill="black"/>
<path d="M32.4996 34.2722C32.9239 34.2722 33.2751 34.5906 33.2751 35.0252C33.2751 35.4598 32.9343 35.7782 32.4996 35.7782C32.0649 35.7781 31.7138 35.4492 31.7138 35.0252C31.7138 34.5906 32.0753 34.2722 32.4996 34.2722Z" fill="black"/>
</svg>
