<svg width="59" height="54" viewBox="0 0 59 54" fill="none" xmlns="http://www.w3.org/2000/svg">
<path d="M27.3601 29.6064C27.3391 29.9755 27.311 30.3361 27.2791 30.6875C27.2226 31.309 27.1524 31.9026 27.0691 32.4658C26.9822 33.0532 26.883 33.6078 26.7771 34.127C26.6181 34.9062 26.4429 35.6059 26.2703 36.2178C26.206 36.4451 26.1291 36.6644 26.0408 36.875C25.9081 37.1913 25.7504 37.489 25.574 37.7686C25.3976 38.0481 25.2024 38.3097 24.9949 38.5537C24.8063 38.7754 24.6064 38.9816 24.4021 39.1748C24.0843 39.4753 23.7539 39.7424 23.4275 39.9766C22.5782 40.5858 21.7605 40.9762 21.2888 41.1758C21.0346 41.2834 20.8808 41.3355 20.8767 41.3369L20.6179 40.7354C20.6255 40.7326 21.058 40.5728 21.6736 40.2383C21.8687 40.1323 22.0812 40.0069 22.3054 39.8652C22.5232 39.7276 22.7514 39.5737 22.9822 39.4014C23.1155 39.3018 23.2505 39.1973 23.3845 39.0859C23.8301 38.7155 24.2713 38.2788 24.6589 37.7725C24.8172 37.5659 24.9655 37.3473 25.1023 37.1172C25.1803 36.986 25.2556 36.8518 25.325 36.7129C25.4402 36.482 25.5411 36.2399 25.6277 35.9873C25.6914 35.8015 25.7482 35.6099 25.7937 35.4121C26.4167 32.7012 26.7761 29.4238 26.7761 29.4238L27.3601 29.6064Z" fill="#CB2C2E"/>
<path d="M29.4607 28.5186C29.8296 28.5033 30.2007 28.6803 30.2507 28.9434C30.2573 28.9778 30.2648 29.0165 30.2732 29.0576C30.2968 29.1729 30.3263 29.3136 30.3474 29.4746C30.358 29.5553 30.3667 29.6411 30.3718 29.7314C30.3796 29.8669 30.3795 30.0125 30.366 30.166C30.3615 30.2169 30.355 30.2687 30.3474 30.3213C30.3321 30.4269 30.3104 30.5359 30.28 30.6475C30.2344 30.8151 30.1695 30.9886 30.0808 31.166C30.0514 31.2248 30.0191 31.2842 29.9841 31.3438L29.8279 31.624C29.7555 31.7589 29.6837 31.899 29.613 32.041C29.539 32.19 29.4662 32.3412 29.3943 32.4902C29.3875 32.5042 29.3805 32.5183 29.3738 32.5322C29.0719 33.1576 28.7898 33.7417 28.5359 33.9863C28.4813 34.0388 28.4276 34.0746 28.3757 34.0928C28.3717 34.0942 28.368 34.0965 28.364 34.0977C27.9125 34.2314 27.5928 33.6438 27.7781 33.1895C27.848 33.0189 27.9341 32.7746 28.0193 32.4844C28.0572 32.3554 28.0934 32.2169 28.1296 32.0723C28.2291 31.675 28.3179 31.2279 28.364 30.7822C28.3657 30.7571 28.4734 29.2279 28.8689 28.7764C29.0186 28.606 29.2393 28.5276 29.4607 28.5186Z" fill="#CB2C2E"/>
<path d="M23.115 24.0889C23.3018 24.0889 23.4818 24.1639 23.614 24.2969L24.0574 24.6914L22.949 25.6689C22.9587 25.6822 23.6105 26.5713 23.6267 26.5947C23.6342 26.6073 23.6413 26.6204 23.6462 26.6338C23.6714 26.7016 23.6644 26.7776 23.6287 26.8398C23.6145 26.8647 23.5951 26.887 23.572 26.9062L22.3445 27.9189C22.3223 27.9373 22.2979 27.9517 22.2722 27.9609C22.1946 27.9887 22.1056 27.9745 22.0388 27.9189L20.8113 26.9062C20.7866 26.8859 20.7662 26.8618 20.7517 26.835C20.7082 26.7543 20.7126 26.6516 20.7703 26.5742L21.4343 25.6689L20.3269 24.6914L20.8191 24.2568C20.8744 24.2079 20.9379 24.1707 21.0046 24.1426C21.0877 24.1077 21.1767 24.0877 21.2683 24.0889C21.2683 24.2073 21.2879 24.314 21.3211 24.4092C21.4648 24.8215 21.877 25.0183 22.1912 25.0186C22.2869 25.0186 22.3797 25.0038 22.4666 24.9766C22.4955 24.9675 22.5239 24.9571 22.5515 24.9453C22.7169 24.8749 22.8573 24.7572 22.9568 24.6094C23.0566 24.4609 23.115 24.2816 23.115 24.0889Z" fill="#CB2C2E"/>
<path d="M24.4841 21.4766L25.6004 22.8135L25.0681 23.3477L23.7664 22.292H21.9324L22.5173 21.4492L24.4841 21.4766Z" fill="#CB2C2E"/>
<path d="M18.4431 10.3057C19.0226 10.2954 19.6124 10.341 20.1931 10.457C20.5563 10.5296 20.9158 10.63 21.2673 10.7607C21.3374 10.7868 21.407 10.8143 21.4763 10.8428C21.6852 10.9287 21.8911 11.0254 22.0925 11.1348C22.1597 11.1712 22.2265 11.2089 22.2927 11.248C22.491 11.3654 22.6847 11.495 22.8728 11.6377C22.9354 11.6852 22.997 11.7347 23.0584 11.7852C23.1209 11.8365 23.1826 11.8889 23.2429 11.9424C24.9891 13.4895 25.8389 15.9104 25.9412 18.666C25.9482 18.8559 25.9509 19.0474 25.9509 19.2402H24.6394C24.6171 16.5551 24.0569 13.8056 21.7478 12.3174C20.707 11.6466 19.5 11.2906 18.1043 11.3105C17.9791 11.3123 17.8525 11.3173 17.7244 11.3252C17.3758 11.3466 17.0159 11.3903 16.6443 11.458L16.3543 10.5801C16.7477 10.4834 17.1602 10.4085 17.5837 10.3613C17.8661 10.3298 18.1533 10.3108 18.4431 10.3057Z" fill="#CB2C2E"/>
<path d="M15.2781 6.97559C15.0381 7.11929 14.8205 7.2859 14.6248 7.46875C14.5396 7.54827 14.4578 7.62991 14.3816 7.71582C14.2305 7.88627 14.0977 8.06882 13.9841 8.26074C13.9495 8.31918 13.9165 8.37834 13.8855 8.43848C13.7813 8.641 13.6983 8.85289 13.6375 9.07129C13.6186 9.13903 13.6022 9.20743 13.5877 9.27637C13.5414 9.49617 13.5164 9.72153 13.5164 9.9502C13.5164 10.5903 13.7004 11.2019 14.0447 11.7383C14.1594 11.917 14.2914 12.0878 14.4412 12.248C14.1051 12.2705 13.8118 12.3018 13.5662 12.333C13.0593 11.6348 12.6854 10.8349 12.6853 9.96973C12.6853 9.52547 12.7651 9.0758 12.9148 8.64551C12.9315 8.59758 12.9501 8.55034 12.9685 8.50293C13.329 7.57568 14.0205 6.75456 14.9685 6.30566L15.2781 6.97559Z" fill="#CB2C2E"/>
<path d="M42.6248 45.0234C42.8024 45.0449 42.9597 45.1569 43.0447 45.3193C43.088 45.4026 43.1342 45.5093 43.1814 45.6299C43.2287 45.7507 43.2773 45.8856 43.3279 46.0244C43.3416 46.0623 43.3558 46.1012 43.3699 46.1396C43.4068 46.2406 43.4261 46.3345 43.4314 46.4209C43.4332 46.4494 43.4334 46.4771 43.4324 46.5039C43.4272 46.6413 43.3855 46.755 43.3347 46.8447C43.3055 46.8966 43.2746 46.9412 43.242 46.9756C43.1974 47.0224 43.1535 47.0526 43.1218 47.0645C43.0741 47.0821 42.9675 47.118 42.8357 47.1094C42.6152 47.0951 42.3242 46.9568 42.1209 46.4014C41.9675 45.982 41.9875 45.6703 42.0681 45.4512C42.0766 45.428 42.0857 45.4059 42.0955 45.3848C42.1122 45.3485 42.1308 45.3155 42.1502 45.2852C42.1684 45.2566 42.1893 45.2324 42.2087 45.209C42.2836 45.1188 42.3603 45.0634 42.4128 45.0439C42.4549 45.0283 42.5003 45.0209 42.5466 45.0195C42.573 45.0187 42.5991 45.0203 42.6248 45.0234Z" fill="#CB2C2E"/>
<path d="M46.7732 43.8701C46.7921 43.8839 47.3917 44.3242 47.532 44.707C47.5642 44.7951 47.5815 44.8786 47.5886 44.9561C47.59 44.9713 47.5911 44.9862 47.5916 45.001C47.5994 45.2428 47.4861 45.4213 47.2791 45.498C47.2232 45.5187 47.1709 45.5258 47.1238 45.5244C47.1002 45.5237 47.0781 45.5207 47.0574 45.5166C47.0367 45.5125 47.0172 45.508 46.9998 45.502C46.9301 45.4777 46.8884 45.4424 46.8884 45.4424C46.8925 45.4243 47.0611 44.657 46.7732 43.8701Z" fill="#CB2C2E"/>
<path fill-rule="evenodd" clip-rule="evenodd" d="M10.7078 53.9258C10.7178 53.9268 10.7288 53.9278 10.7399 53.9288C10.7459 53.9294 10.752 53.9299 10.7579 53.9304L10.7399 53.9288L10.7078 53.9258ZM8.94069 53.5094C8.95657 53.5161 8.97242 53.5227 8.98826 53.5293C8.97373 53.5233 8.95664 53.5161 8.94069 53.5094ZM11.0925 2.20463C11.0977 2.20408 11.1029 2.20353 11.1082 2.20312L11.0925 2.20463ZM11.5747 2.17648C11.56 2.17729 11.5455 2.1781 11.531 2.17871ZM13.3608 2.15527C13.391 2.15527 13.4214 2.15527 13.4521 2.15527ZM53.1529 51.7999C53.1616 51.7994 53.1704 51.7989 53.1791 51.7983C53.1734 51.7987 53.1586 51.7996 53.1529 51.7999C53.1498 51.8001 53.1559 51.7998 53.1529 51.7999ZM30.4069 13.7736C30.4179 13.7683 30.429 13.763 30.4402 13.7578L30.4069 13.7736ZM23.407 8.99902C23.4292 9.02376 23.4439 9.03964 23.45 9.04492L24.3787 8.19141L24.3347 8.14746C24.0809 7.88545 22.7571 6.58131 20.781 6.24512C20.7068 6.23248 20.6315 6.22172 20.5554 6.21191C20.403 6.19229 20.2471 6.17785 20.0877 6.1709C20.0081 6.16742 19.9277 6.16602 19.8464 6.16602C19.4508 6.16605 19.0794 6.20391 18.7332 6.26855C17.5094 6.49691 16.5995 7.06279 16.0457 7.50098C15.8947 7.62047 15.7718 7.73223 15.6746 7.82324C15.5637 7.92704 15.4866 8.00436 15.448 8.04492C15.4417 8.0516 15.4364 8.05742 15.4321 8.06213C15.4274 8.06725 15.424 8.07106 15.4216 8.07324L15.9314 8.6377L15.9382 8.62988C15.975 8.59098 16.1511 8.40632 16.4548 8.17871C16.82 7.90512 17.3701 7.56969 18.0896 7.35547C18.474 7.24099 18.9065 7.16082 19.3845 7.14258C19.4526 7.13999 19.5216 7.13867 19.5916 7.13867C21.7402 7.13885 23.1416 8.70279 23.407 8.99902ZM14.4017 40.6537C14.3978 40.6532 14.3938 40.6526 14.3898 40.6521ZM13.441 51.844V51.844ZM7.41335 50.2414C7.40827 50.2331 7.40322 50.2249 7.3982 50.2168L7.41335 50.2414ZM10.9567 52.9442C10.9615 52.9445 10.9664 52.9449 10.9712 52.9452L10.9874 52.9464L10.9988 52.9473C10.995 52.947 10.9912 52.9467 10.9874 52.9464C10.9824 52.946 10.9762 52.9456 10.9712 52.9452C10.9664 52.9449 10.9615 52.9445 10.9567 52.9442ZM38.8837 47.969C38.8798 47.9594 38.8759 47.9497 38.8719 47.94C38.843 47.869 38.8134 47.796 38.7831 47.7215L38.7136 47.5508L38.0349 45.877C37.8285 45.3657 37.6645 44.9558 37.6121 44.8125C37.604 44.7902 37.5998 44.7698 37.5984 44.751C37.5941 44.6949 37.6177 44.654 37.6589 44.626C37.6864 44.6074 37.7216 44.5948 37.7615 44.5869C37.8017 44.5789 37.8467 44.5756 37.8933 44.5771C38.0793 44.5836 38.2912 44.6609 38.3298 44.7656L39.0623 46.5449C39.1742 46.5034 39.2776 46.4545 39.3718 46.3984C39.4194 46.3702 39.4646 46.3401 39.5076 46.3086C39.7209 46.1519 39.8784 45.9563 39.9773 45.7373C40.0169 45.6498 40.0473 45.5587 40.0681 45.4648C40.089 45.3709 40.1005 45.2741 40.1023 45.1758C40.1042 45.0772 40.0963 44.9769 40.0789 44.876C40.0614 44.7754 40.0337 44.6741 39.9968 44.5732C39.9752 44.5141 39.9494 44.4523 39.9177 44.3906C39.8701 44.2978 39.8104 44.2048 39.7371 44.1191C39.6636 44.0333 39.5763 43.9547 39.4734 43.8916C39.3363 43.8077 39.1713 43.7514 38.9744 43.7402C38.8666 43.7341 38.7495 43.7424 38.6218 43.7666C38.5163 43.7866 38.403 43.8168 38.283 43.8613C38.1775 43.9005 38.0812 43.9469 37.991 43.9951C37.9477 44.0182 37.9059 44.0415 37.866 44.0664C37.7821 44.1187 37.7049 44.1739 37.6345 44.2324C37.1728 44.6163 36.9875 45.1133 36.8953 45.4424C36.8777 45.5051 36.8635 45.5619 36.8513 45.6104L36.8123 45.752V45.752M36.807 45.7633C36.8082 45.7612 36.8112 45.7544 36.8123 45.752ZM44.23 42.079V42.079C44.2309 42.0819 44.2333 42.0899 44.2341 42.0928C44.2329 42.0883 44.2315 42.0837 44.23 42.079ZM30.3036 40.5849L30.2996 40.5752C30.2996 40.5752 30.2991 40.5803 30.3036 40.5849ZM6.53289 13.6413C6.5241 13.6418 6.51533 13.6422 6.5066 13.6426L6.53289 13.6413ZM6.63648 33.0068C6.64073 33.0084 6.64498 33.0099 6.6492 33.0114C6.65607 33.0139 6.66289 33.0162 6.66969 33.0186L6.6492 33.0114L6.63648 33.0068ZM6.54176 26.7412C6.55656 26.7476 6.5711 26.754 6.58529 26.7603L6.54176 26.7412ZM7.25322 30.8668L7.25855 30.9121C7.25708 30.9002 7.25533 30.885 7.25322 30.8668ZM6.65876 11.7925C6.65394 11.7923 6.64912 11.7922 6.6443 11.792L6.65876 11.7925ZM6.42949 11.7861C6.42065 11.7861 6.41183 11.7862 6.40308 11.7861L6.42949 11.7861ZM6.40308 11.7861C6.39252 11.786 6.38197 11.7859 6.37142 11.7857L6.40308 11.7861ZM16.8269 29.5005L16.8487 29.5024Z" fill="#CB2C2E"/>
<path fill-rule="evenodd" clip-rule="evenodd" d="M6.5635 50.7693C6.56164 50.7663 6.55977 50.7634 6.55792 50.7604C6.55412 50.7543 6.55035 50.7482 6.54664 50.7422C6.55216 50.7512 6.55781 50.7602 6.5635 50.7693ZM8.84254 53.4678C8.85138 53.4717 8.86031 53.4755 8.86926 53.4793L8.84254 53.4678ZM41.4705 48.2548C41.4759 48.2526 41.4813 48.2504 41.4869 48.2481ZM30.2996 40.5752L30.3036 40.5849C30.3013 40.5826 30.3036 40.5849 30.3036 40.5849L30.2996 40.5752Z" fill="#CB2C2E"/>
<path fill-rule="evenodd" clip-rule="evenodd" d="M10.7579 53.9304L10.7399 53.9288L10.7078 53.9258C10.5207 53.9072 10.3326 53.8825 10.1453 53.8506C10.0986 53.8426 10.0514 53.8342 10.0046 53.8252C9.6754 53.7618 9.34494 53.6712 9.01734 53.541C8.99326 53.5315 8.96601 53.5201 8.94069 53.5094L8.92337 53.5021L8.91383 53.498L8.89301 53.4893C8.88511 53.486 8.87718 53.4827 8.86926 53.4793C8.86031 53.4755 8.85138 53.4717 8.84254 53.4678C8.78439 53.442 8.72613 53.415 8.66871 53.3867L8.65601 53.3809C8.59697 53.3516 8.54108 53.3164 8.48902 53.2764C8.48705 53.2748 8.48007 53.2684 8.47828 53.2666C8.4376 53.2343 8.39833 53.1995 8.36305 53.1611C8.16525 52.9458 7.97852 52.7276 7.8025 52.5117L7.77615 52.4797L7.7607 52.4609L7.73609 52.4307C7.32456 51.9188 6.97201 51.4134 6.68043 50.9561C6.66635 50.934 6.65266 50.9116 6.63918 50.8895L6.61402 50.8486L6.59058 50.8125L6.5749 50.7875C6.56536 50.7723 6.55583 50.7571 6.54664 50.7422C6.52792 50.7119 6.50963 50.6816 6.49155 50.6517L6.47242 50.6201L6.46628 50.61C6.43776 50.5629 6.40961 50.5164 6.38258 50.4707L6.34547 50.4072L6.33066 50.3824C6.3221 50.3682 6.31358 50.354 6.30543 50.3398C6.27555 50.2883 6.24704 50.2376 6.21927 50.1881L6.2107 50.1729L6.19898 50.1523C5.92805 49.6707 5.74542 49.2888 5.65992 49.0869C5.50006 48.7091 5.59016 48.2828 5.86402 48.001C5.90624 47.9575 5.95293 47.9177 6.00367 47.8818C6.02883 47.864 6.05463 47.8467 6.0818 47.8311L7.85719 46.8076L7.94898 46.7607C8.0849 46.7001 8.23253 46.6707 8.38035 46.674L8.42697 44.3504C8.24269 44.3465 8.06079 44.2918 7.90308 44.1895C7.86217 44.1629 7.82221 44.1335 7.78492 44.1006L6.81519 43.2441C6.62084 43.0725 6.49975 42.8317 6.47926 42.5732L6.36109 41.0869L6.17359 40.9766C5.86778 40.797 5.67945 40.4689 5.67945 40.1143V38.1133C5.58309 38.0499 5.49553 37.9708 5.42457 37.875C4.75969 36.9779 3.96175 35.3542 3.3523 33.7656C3.09042 33.0831 2.79613 32.6252 2.58277 32.3506C2.47586 32.213 2.3881 32.1202 2.33473 32.0674L2.28492 32.0205L2.22242 31.9668C1.90262 31.6678 1.81277 31.1893 2.01052 30.791C2.02588 30.7594 2.55196 29.6795 2.77711 28.4424C2.839 28.1039 2.87574 27.7639 2.87574 27.4424C2.87568 26.6953 2.64021 25.8087 2.37086 25.0576C2.11686 24.3494 1.86359 23.8429 1.85523 23.8262C1.72797 23.575 1.71214 23.2817 1.81226 23.0186L1.86598 22.876C1.82294 22.7964 1.7896 22.7109 1.7693 22.6211L1.74781 22.4775L1.74586 22.4512L1.74293 22.4111L1.73707 22.3604C1.72938 22.2799 1.71717 22.1612 1.69996 22.0137C1.67951 21.8385 1.65093 21.6239 1.615 21.3838C1.59015 21.2179 1.56222 21.0397 1.52906 20.8545C1.35981 19.909 1.10058 18.9143 0.750741 18.3145C0.352201 17.6302 0.134213 17.0047 0.0222254 16.4824C-0.044117 16.1731 0.0399867 15.85 0.248788 15.6123C0.293504 15.5615 0.340277 15.5119 0.386825 15.4626L0.403085 15.4453L0.440194 15.4053C0.418578 15.3679 0.399449 15.329 0.382577 15.2891C0.370043 15.2594 0.359092 15.2291 0.349374 15.1982C0.348759 15.1963 0.346902 15.1886 0.346444 15.1865C0.337662 15.1574 0.331058 15.1277 0.32496 15.0977L0.32169 15.0821C0.318907 15.0692 0.316121 15.0562 0.314218 15.043C0.307691 14.9978 0.303475 14.9518 0.303475 14.9053V13.7393C0.303475 13.4738 0.409528 13.2188 0.597421 13.0312C0.611942 13.0168 0.790857 12.8397 1.11402 12.5908C1.08914 12.5032 1.07594 12.4111 1.07594 12.3174V10.8779C1.07606 10.5406 1.24674 10.2256 1.52906 10.041L1.54273 10.0322L1.55152 10.0264L1.56812 10.0156C1.58421 10.0056 1.60526 9.99322 1.63028 9.9785L1.65016 9.9668C1.7185 9.9265 1.81465 9.87131 1.93531 9.80859C2.05583 9.74594 2.20249 9.67454 2.37183 9.59961C2.54122 9.52466 2.73374 9.44601 2.94703 9.36914C3.57009 9.14463 4.38517 8.93108 5.32594 8.87402V8.19043L5.32691 8.125L5.32691 8.07563C5.32683 7.13714 5.32677 6.30984 5.38062 5.62402C5.40267 5.34304 5.43526 5.05986 5.48609 4.77637C5.51995 4.58753 5.56217 4.39856 5.615 4.20996C5.64148 4.11543 5.6707 4.02102 5.70289 3.92676C5.76706 3.7388 5.84279 3.55132 5.93336 3.36523C5.96977 3.29042 6.00826 3.21655 6.04762 3.14355C6.1262 2.9978 6.2107 2.85584 6.30055 2.71777C6.88497 1.81968 7.70115 1.09036 8.66871 0.613281C9.4111 0.247304 10.1732 0.11501 10.9187 0.0556641C11.0936 0.0417595 11.2779 0.0312652 11.4705 0.0234375C12.047 0 12.706 0 13.4255 0H50.8982C51.8607 0 52.7069 5.66244e-06 53.407 0.0556641C54.1526 0.114978 54.9154 0.247209 55.658 0.613281C56.8486 1.2004 57.8092 2.16946 58.3914 3.36523C58.7542 4.11046 58.8853 4.87483 58.9441 5.62402C58.9998 6.33308 58.9998 7.18985 58.9998 8.16797V45.832C58.9998 46.8102 58.9998 47.6669 58.9441 48.376C58.8853 49.1252 58.7542 49.8895 58.3914 50.6348C57.8092 51.8305 56.8486 52.7996 55.658 53.3867C55.565 53.4326 55.4712 53.4748 55.3777 53.5137C55.0043 53.6686 54.6272 53.7706 54.2507 53.8389C54.0626 53.873 53.8745 53.898 53.6873 53.918C53.5936 53.928 53.5002 53.9369 53.407 53.9443C53.0568 53.9722 52.6699 53.9862 52.2507 53.9932C51.8387 54 51.3949 54 50.9227 54H50.8982H13.0232C12.9651 53.9999 12.9076 53.9997 12.8507 53.9994L12.7576 53.999L12.7277 53.9989C12.6181 53.9985 12.5088 53.998 12.4041 53.9971C12.304 53.9962 12.2052 53.9947 12.1091 53.9932C11.6831 53.9865 11.2842 53.9734 10.9187 53.9443L10.8484 53.9385L10.782 53.9326L10.7579 53.9304ZM11.0925 2.20463L11.1082 2.20312C11.2414 2.19278 11.382 2.18506 11.531 2.17871C11.5455 2.1781 11.56 2.17729 11.5747 2.17648C11.5925 2.17549 11.6106 2.17449 11.6287 2.17383C11.7911 2.16786 11.9632 2.16394 12.1462 2.16113C12.5062 2.15562 12.9075 2.15528 13.3608 2.15527L13.4521 2.15527L13.5173 2.15527H51.1843C53.0065 2.15671 53.9633 2.18002 54.7097 2.54785L54.7449 2.56543C54.8382 2.61266 54.9296 2.66336 55.0183 2.71777C55.6384 3.09816 56.14 3.65 56.4617 4.31055L56.4802 4.34863C56.5035 4.39842 56.5262 4.44909 56.5466 4.50098C56.8471 5.26377 56.8522 6.27445 56.8523 8.125V46.1416C56.8515 47.1967 56.8408 47.9634 56.7644 48.5674C56.708 49.0131 56.6169 49.3705 56.4617 49.6895L56.4441 49.7246C56.3269 49.9592 56.1843 50.1781 56.0242 50.3818C55.9283 50.5038 55.8282 50.6222 55.7185 50.7314C55.6454 50.8043 55.5688 50.8737 55.49 50.9404C55.2881 51.1115 55.0667 51.2591 54.8318 51.3857C54.8277 51.3879 54.8236 51.3902 54.8196 51.3924C54.8089 51.3982 54.7984 51.4042 54.7878 51.4101C54.7621 51.4246 54.7363 51.4391 54.7097 51.4521L54.6726 51.4707C54.4693 51.5669 54.2492 51.6354 54.0007 51.6885C53.9431 51.7008 53.884 51.7122 53.823 51.7227C53.7644 51.7327 53.7043 51.7426 53.6423 51.751C53.621 51.7539 53.5995 51.7565 53.5778 51.7591C53.5542 51.7618 53.5303 51.7644 53.5063 51.7671L53.4841 51.7695L53.4672 51.7714C53.3945 51.7795 53.3196 51.7877 53.242 51.7939C53.2212 51.7956 53.2002 51.797 53.1791 51.7983L53.1529 51.7999L53.0916 51.8037C53.0063 51.8092 52.9183 51.8153 52.8269 51.8193C52.7483 51.8228 52.6673 51.8256 52.5837 51.8281C52.5034 51.8306 52.4208 51.8332 52.3357 51.835C51.9943 51.8419 51.6131 51.8444 51.1843 51.8447H34.5466L25.3211 46.5264L25.1199 40.7549L25.4656 40.5137L25.5613 42.7295L26.8992 40.9551C27.358 38.9284 26.9666 37.8174 26.9666 37.8174L27.7224 37.1465C27.7224 37.1465 28.075 38.2251 28.0007 39.3135C27.9958 39.3861 27.9882 39.4588 27.9793 39.5312C28.0798 39.4149 28.1749 39.2953 28.2644 39.1729C28.3208 39.0958 28.3743 39.0173 28.4265 38.9385C29.5548 37.234 29.7281 35.1656 29.7302 35.1396C29.6102 33.7777 29.9031 32.7861 29.9031 32.7861C29.8998 32.8932 29.9026 33.0092 29.9089 33.1299C29.9409 33.7331 30.0778 34.4603 30.1599 34.8535C30.1926 35.0102 30.2162 35.114 30.2214 35.1357C30.1803 34.7514 30.3112 34.3198 30.5193 33.6377L30.548 33.5439C30.5941 33.393 30.6444 33.2285 30.6961 33.0518C30.9917 32.0388 31.1564 31.1759 31.2361 30.4463C31.2612 30.2164 31.2776 29.9999 31.2869 29.7959C31.3696 27.9802 30.8813 27.1697 30.7722 26.9893C30.7635 26.9748 30.757 26.9635 30.7537 26.957C31.2657 27.4009 31.5664 27.5845 31.8533 27.6553C31.894 27.6653 31.9346 27.6728 31.9754 27.6787C31.9461 27.637 30.1692 25.0752 32.3943 21.5732C32.4493 21.4866 32.5081 21.4003 32.5681 21.3125C32.7724 21.0139 33.0038 20.707 33.2703 20.3965C32.1638 20.7379 30.8314 20.344 29.9041 19.3789C29.9396 19.3992 30.0179 19.4359 30.1277 19.4814C30.5755 19.6671 31.566 19.9663 32.5027 19.5771C32.6605 19.5116 32.8167 19.4267 32.9685 19.3184L33.0906 19.2256L32.6882 17.6211C32.3432 17.8394 31.9378 17.9441 31.5164 17.9551C30.9743 17.969 30.4048 17.8279 29.9041 17.5742C30.0077 17.5846 30.11 17.5885 30.2097 17.5898C31.1213 17.6022 31.8665 17.2553 32.367 16.7969C32.4154 16.7525 32.4618 16.7073 32.5056 16.6611L32.6091 16.5449L32.1316 14.5459C31.8938 14.7573 31.6362 14.9315 31.367 15.0762C29.654 15.9969 27.4423 15.656 26.4587 15.1758C26.4195 15.1018 26.3809 15.0286 26.3435 14.9561C26.2554 14.7851 26.1723 14.6178 26.0915 14.4553L26.0623 14.3965L26.0499 14.3716C25.935 14.1405 25.8241 13.9176 25.7107 13.7051C25.8296 13.757 25.9503 13.8049 26.072 13.8496C26.5588 14.0284 27.0658 14.1483 27.5769 14.2031C28.1161 14.2609 28.6593 14.2447 29.1882 14.1504C29.586 14.0795 29.9755 13.9649 30.3484 13.8008C30.368 13.7922 30.3875 13.7828 30.4069 13.7736L30.4402 13.7578C30.6264 13.6712 30.8086 13.5734 30.9851 13.4619C31.0767 13.404 31.1671 13.3431 31.2556 13.2783C31.3533 13.2069 31.4492 13.1316 31.5427 13.0518L30.7634 11.6201C30.609 11.7264 30.4542 11.821 30.3005 11.9062C30.2232 11.9491 30.1461 11.9895 30.0691 12.0273C29.9235 12.0988 29.7789 12.1625 29.6345 12.2168C29.5103 12.2635 29.3866 12.3041 29.2634 12.3389C25.8146 13.3132 22.8536 9.74325 22.7839 9.65918L23.45 9.04492C23.5959 9.20435 23.7429 9.35323 23.8904 9.49121C23.9643 9.56038 24.0388 9.62647 24.113 9.69043C24.7055 10.2009 25.3056 10.5471 25.8933 10.7598C25.9668 10.7863 26.04 10.8106 26.113 10.833C26.4783 10.9453 26.8375 11.0072 27.1863 11.0254C27.5352 11.0436 27.8734 11.0183 28.1961 10.957C28.2601 10.9449 28.3237 10.9319 28.3865 10.917C28.5298 10.8829 28.6694 10.8406 28.8054 10.793C28.8974 10.7608 28.9877 10.7263 29.0759 10.6885C29.2034 10.6339 29.3269 10.574 29.4461 10.5088C29.6074 10.4205 29.7607 10.3229 29.905 10.2178L29.0144 9.14844C28.9407 9.19963 28.865 9.24839 28.7869 9.29297C28.4666 9.47564 28.1104 9.59879 27.7302 9.65039C26.7158 9.78826 25.5281 9.40402 24.3787 8.19141L25.1824 7.45508C23.7805 5.6594 21.7992 4.4552 19.0496 4.45508C18.9207 4.45508 18.7937 4.4574 18.6687 4.46094C18.5441 4.46447 18.4214 4.46962 18.3005 4.47656C18.1795 4.48351 18.0603 4.49167 17.9431 4.50195C17.1218 4.57403 16.3938 4.72711 15.7527 4.94336C15.4781 5.03596 15.2195 5.14027 14.9763 5.25488C14.4092 5.52226 13.9263 5.84592 13.5212 6.20898C13.4635 6.26075 13.4069 6.31289 13.3523 6.36621C13.0786 6.63348 12.8445 6.91982 12.6472 7.21875C12.5621 7.34767 12.4843 7.47913 12.4129 7.6123C12.3517 7.7263 12.2953 7.84157 12.2439 7.95801C12.1882 8.08418 12.1381 8.21156 12.0935 8.33984C11.9821 8.66045 11.9051 8.98635 11.8601 9.31152C11.8511 9.37637 11.8431 9.44112 11.8367 9.50586C11.798 9.89545 11.8048 10.2821 11.8533 10.6553C11.8694 10.7797 11.8905 10.9025 11.9158 11.0234C12.1433 12.1122 12.7336 13.0475 13.5818 13.542C13.6051 13.5413 17.0593 13.3447 17.0593 13.3447C17.8515 13.3413 18.5964 13.3886 19.0925 13.542C19.0826 13.5603 18.396 14.8481 18.7683 16.6377C18.8245 16.9078 18.905 17.1892 19.0154 17.4795C19.3098 18.2537 19.8184 19.0901 20.6541 19.9395C20.7585 20.0455 20.8674 20.1524 20.9822 20.2588L17.9724 20.9414L17.6267 24.0166L18.1052 24.8457V28.2148L18.0964 28.3906C18.0718 28.6162 17.9984 28.8141 17.8933 28.9795C17.8949 28.9764 17.8933 28.9795 17.8933 28.9795C17.8922 28.9817 17.8865 28.9922 17.8865 28.9922C17.8625 29.0289 17.8365 29.0634 17.8093 29.0967L17.7947 29.1143C17.7694 29.1441 17.7414 29.1743 17.7137 29.201C17.7072 29.2073 17.7008 29.2136 17.6941 29.2197C17.6705 29.2415 17.646 29.2618 17.6209 29.2812C17.6049 29.2936 17.5885 29.305 17.572 29.3164C17.5528 29.3297 17.5334 29.3425 17.5134 29.3545C17.4935 29.3665 17.4734 29.378 17.4529 29.3887C17.4362 29.3974 17.4192 29.4053 17.4021 29.4131C17.3789 29.4237 17.3556 29.4335 17.3318 29.4424C17.3127 29.4495 17.2936 29.4559 17.2742 29.4619C17.2525 29.4686 17.2308 29.4752 17.2087 29.4805C17.1916 29.4846 17.1676 29.4888 17.1483 29.4922C17.1267 29.4961 17.0959 29.5016 17.074 29.5039C17.0544 29.506 17.0283 29.507 17.0086 29.5078L16.9933 29.5085C16.9786 29.5093 16.9638 29.51 16.949 29.5098C16.9214 29.5093 16.8938 29.5066 16.866 29.5039L16.8487 29.5024L16.8269 29.5005C16.8204 29.4998 16.8139 29.499 16.8074 29.498C16.7878 29.4951 16.7684 29.4904 16.7488 29.4863L16.7323 29.4829C16.7117 29.4788 16.6911 29.4746 16.6707 29.4688C16.6264 29.4561 16.5817 29.4406 16.5379 29.4219C16.4699 29.393 16.4051 29.3688 16.3435 29.3477C15.9134 29.2001 15.6335 29.2272 15.4216 29.248C15.332 29.2568 15.2542 29.2642 15.1824 29.2568C14.9193 29.2294 14.4988 28.5723 14.492 28.5615L14.4129 29.4365C14.4148 29.4415 14.4337 29.4878 14.4705 29.5547C14.5717 29.7386 14.8136 30.0769 15.2468 30.1318C15.286 30.1368 15.3266 30.1396 15.3689 30.1396C15.441 30.1396 15.5079 30.1427 15.5701 30.1475C16.0032 30.1808 16.208 30.32 16.3591 30.4229C16.3941 30.4467 16.4274 30.4682 16.4587 30.4863C16.5277 30.526 16.655 30.536 16.7879 30.5332C16.8318 30.5323 16.8764 30.5305 16.9197 30.5273C17.0894 30.5148 17.24 30.4888 17.2546 30.4863L17.3884 31.9551L18.2654 31.9297V32.4893L17.4148 32.9707L16.1394 32.4893L14.0935 33.2783L13.5086 32.8105L12.658 33.667L12.6853 33.6914L13.5623 34.4688L14.0671 33.96H18.2664C18.2793 33.96 18.8049 33.9663 18.8709 34.4678C18.8753 34.5013 18.8767 34.5371 18.8767 34.5752C18.8767 34.6134 18.8749 34.6498 18.8699 34.6836C18.8345 34.922 18.6825 35.0539 18.531 35.127C18.3582 35.2104 18.1853 35.2168 18.1853 35.2168L14.6248 35.2441L15.7937 37.1689C15.9066 37.1021 16.025 37.0481 16.1453 37.0039C16.9765 36.6983 17.91 36.8839 17.9334 36.8887L18.9841 38.1191C19.1586 38.3243 19.2123 38.5941 19.1492 38.8379C19.1114 38.9841 19.031 39.1206 18.9109 39.2285C18.8449 39.2879 18.7781 39.3463 18.7097 39.4023C18.5726 39.5147 18.4307 39.6201 18.2849 39.7188C17.8486 40.014 17.3754 40.2466 16.8796 40.4121C16.7131 40.4677 16.544 40.5155 16.3728 40.5557C16.2024 40.5956 16.0301 40.6281 15.8562 40.6523C15.5958 40.6887 15.3316 40.707 15.0662 40.707C15.0043 40.707 14.8715 40.7029 14.6882 40.6865C14.6099 40.6796 14.5226 40.6695 14.4275 40.6572L14.4017 40.6537L14.3898 40.6521L14.3709 40.6494C14.2884 40.638 14.2009 40.6247 14.1091 40.6084L14.0746 40.6022L14.042 40.5962L14.0086 40.5898C13.8975 40.5685 13.781 40.5444 13.6609 40.5146C13.5572 40.489 13.4509 40.4595 13.3425 40.4268L13.3162 40.4189C13.1066 40.3545 12.8911 40.2747 12.6755 40.1787L12.659 40.1716C12.6525 40.1688 12.6459 40.166 12.6394 40.1631C12.5336 40.115 12.4275 40.0637 12.323 40.0068L8.68922 37.9854L13.1189 41.1064C13.185 41.1524 13.2527 41.1961 13.3211 41.2383C13.662 41.4487 14.0286 41.6133 14.4041 41.7412C14.4793 41.7668 14.5549 41.7907 14.6306 41.8135C15.0089 41.9271 15.3925 42.006 15.7644 42.0596C15.9132 42.081 16.06 42.0984 16.2039 42.1123C16.6356 42.154 17.0406 42.1648 17.3894 42.1602C18.0869 42.1508 18.5594 42.0808 18.5711 42.0791C17.9533 42.2651 17.3889 42.3445 16.9822 42.3779C16.5866 42.4104 16.3386 42.3994 16.3386 42.3994L18.8504 46.4102L14.5857 46.1699L15.1033 47.4141L19.1287 48.8984L19.3689 50.7832L17.0291 51.8447H13.4519C13.4492 51.8447 13.4437 51.8443 13.441 51.844L12.6912 51.8438C12.4353 51.8426 12.1978 51.8405 11.9773 51.8359C9.60967 50.2092 8.58515 48.1379 8.36012 47.6826L6.58082 48.6973C6.61493 48.7778 6.67381 48.9051 6.75562 49.0693C6.8373 49.2333 6.94197 49.4343 7.07008 49.6621C7.10204 49.7189 7.13585 49.7779 7.17066 49.8379C7.19393 49.878 7.21838 49.9195 7.24293 49.9609C7.29196 50.0438 7.34411 50.1292 7.3982 50.2168L7.41335 50.2414L7.43922 50.2832C7.46688 50.3275 7.4953 50.3726 7.52418 50.418C7.79929 50.8495 8.13005 51.3254 8.51539 51.8047L8.54176 51.8371L8.57691 51.8799C8.7415 52.0818 8.91586 52.2846 9.09937 52.4844L9.11109 52.4893C9.15646 52.5116 9.20195 52.5333 9.24781 52.5537C9.29373 52.5741 9.34007 52.5938 9.38648 52.6123C9.64633 52.7155 9.91482 52.7891 10.1931 52.8428L10.2119 52.8464C10.2455 52.8529 10.2796 52.8595 10.3132 52.8652C10.4742 52.8926 10.639 52.9139 10.8074 52.9307L10.9343 52.9424L10.9567 52.9442L10.9712 52.9452L10.9874 52.9464L10.9988 52.9473C11.334 52.9739 11.708 52.9866 12.1248 52.9932L12.1507 52.9936C12.2362 52.9949 12.3239 52.9963 12.4129 52.9971C12.7403 52.9999 13.0923 53 13.4705 53H50.8543L52.2156 52.9932C52.6263 52.9866 52.9958 52.9736 53.3269 52.9473C53.4985 52.9336 53.666 52.9157 53.8298 52.8926C53.9245 52.8792 54.0179 52.8641 54.1101 52.8467C54.337 52.8039 54.5569 52.748 54.7712 52.6738C54.9217 52.6218 55.0693 52.5609 55.2146 52.4893C55.5673 52.3153 55.8951 52.1002 56.1941 51.8516C56.3759 51.7005 56.5463 51.5367 56.7048 51.3613C57.0183 51.0146 57.2852 50.6239 57.4929 50.1973C57.7779 49.6116 57.8929 48.9875 57.947 48.2979C57.9601 48.1311 57.9699 47.9548 57.9773 47.7686C57.9995 47.2099 57.9998 46.5608 57.9998 45.8096V8.19043C57.9998 7.18869 57.9994 6.36874 57.947 5.70215C57.8929 5.0125 57.778 4.38832 57.4929 3.80273C57.0074 2.80555 56.2056 1.99932 55.2146 1.51074C54.6326 1.22386 54.0124 1.10724 53.3269 1.05273C52.6645 1.0001 51.8497 0.999987 50.8543 1H13.4714C12.9736 1 12.521 1.00023 12.1101 1.00684C11.6994 1.01342 11.3299 1.02642 10.9988 1.05273C10.3133 1.10724 9.6931 1.22388 9.11109 1.51074C8.22554 1.94733 7.4915 2.63776 6.99879 3.49121C6.95939 3.55948 6.92177 3.62891 6.88551 3.69922L6.87473 3.72005C6.86053 3.74747 6.84631 3.77492 6.83277 3.80273C6.63019 4.21883 6.51337 4.65453 6.44312 5.11914C6.41455 5.30841 6.39337 5.50253 6.37769 5.70215C6.3259 6.36176 6.32592 7.17101 6.32594 8.15849V8.19043V9.87793C6.17467 9.86661 6.0258 9.8608 5.87965 9.85938C5.4414 9.85513 5.02739 9.89222 4.64527 9.95508C4.03596 10.0553 3.50802 10.2211 3.09156 10.3838C2.463 10.6294 2.08856 10.8697 2.07594 10.8779V12.3174C2.3619 12.1316 2.64724 11.9714 2.92945 11.834C2.95 11.824 2.97084 11.8145 2.99154 11.8051C3.00536 11.7989 3.01927 11.7925 3.03297 11.7861C3.359 11.6334 3.68084 11.5102 3.99683 11.4131C4.11692 11.3762 4.2361 11.3432 4.35426 11.3135C4.54733 11.2649 4.73757 11.2255 4.92457 11.1943C5.07129 11.1699 5.21583 11.1497 5.35816 11.1348C5.52663 11.1171 5.6918 11.1055 5.85328 11.0996C6.0147 11.0938 6.17242 11.0934 6.32594 11.0977L6.40308 11.1006C6.48707 11.1038 6.56979 11.1085 6.65113 11.1143C6.89425 11.1314 7.12518 11.1591 7.34156 11.1943C7.38597 11.2016 7.4302 11.209 7.4734 11.2168C7.74495 11.2659 7.9919 11.3257 8.20973 11.3877C8.85692 11.5718 9.24735 11.7762 9.26441 11.7852C9.2599 11.6465 9.24975 11.4955 9.23805 11.3525C9.21164 11.0298 9.1766 10.7475 9.17555 10.7393C8.59551 10.4194 8.02432 10.2021 7.4734 10.0635V8.23047C7.4734 6.15208 7.47341 5.1109 7.86305 4.31055C7.87158 4.29301 7.88108 4.27599 7.89057 4.25897C7.89748 4.2466 7.90437 4.23423 7.9109 4.22168L7.92744 4.1897C7.95143 4.1432 7.97539 4.09679 8.00172 4.05176C8.01487 4.02929 8.02892 4.00739 8.04297 3.98551L8.06422 3.95215C8.09773 3.89865 8.13173 3.8456 8.16773 3.79395C8.18684 3.76656 8.20685 3.73987 8.22686 3.71319L8.24098 3.69434C8.27583 3.64761 8.31151 3.60167 8.3484 3.55664C8.37668 3.52215 8.40587 3.48853 8.43531 3.45508C8.47369 3.41142 8.51221 3.36801 8.5525 3.32617C8.57535 3.30247 8.59838 3.27896 8.62183 3.25586C8.67252 3.20586 8.72468 3.15746 8.77808 3.11035C8.80164 3.0896 8.82531 3.069 8.84937 3.04883C8.90708 3.00039 8.96656 2.95419 9.02711 2.90918C9.03547 2.90297 9.04366 2.89646 9.05182 2.88997C9.062 2.88187 9.07219 2.87377 9.08277 2.86621C9.16505 2.80736 9.24968 2.75153 9.33668 2.69922L9.61598 2.54785C9.67808 2.51724 9.742 2.48989 9.80738 2.46387C9.83376 2.45336 9.86047 2.4434 9.88746 2.43359C10.0235 2.38425 10.1674 2.34291 10.323 2.30957C10.3513 2.3035 10.3799 2.29759 10.4089 2.29199C10.491 2.2762 10.576 2.26137 10.6648 2.24902C10.7944 2.23096 10.9317 2.21788 11.0779 2.20605L11.0925 2.20463ZM38.8719 47.94L38.7831 47.7215L38.7136 47.5508L38.0349 45.877C37.8285 45.3657 37.6645 44.9558 37.6121 44.8125C37.604 44.7902 37.5998 44.7698 37.5984 44.751C37.5941 44.6949 37.6177 44.654 37.6589 44.626C37.6864 44.6074 37.7216 44.5948 37.7615 44.5869C37.8017 44.5789 37.8467 44.5756 37.8933 44.5771C38.0793 44.5836 38.2912 44.6609 38.3298 44.7656L39.0623 46.5449C39.1742 46.5034 39.2776 46.4545 39.3718 46.3984C39.4194 46.3702 39.4646 46.3401 39.5076 46.3086C39.7209 46.1519 39.8784 45.9563 39.9773 45.7373C40.0169 45.6498 40.0473 45.5587 40.0681 45.4648C40.089 45.3709 40.1005 45.2741 40.1023 45.1758C40.1042 45.0772 40.0963 44.9769 40.0789 44.876C40.0614 44.7754 40.0337 44.6741 39.9968 44.5732C39.9752 44.5141 39.9494 44.4523 39.9177 44.3906C39.8701 44.2978 39.8104 44.2048 39.7371 44.1191C39.6636 44.0333 39.5763 43.9547 39.4734 43.8916C39.3363 43.8077 39.1713 43.7514 38.9744 43.7402C38.8666 43.7341 38.7495 43.7424 38.6218 43.7666C38.5163 43.7866 38.403 43.8168 38.283 43.8613C38.1775 43.9005 38.0812 43.9469 37.991 43.9951C37.9477 44.0182 37.9059 44.0415 37.866 44.0664C37.7821 44.1187 37.7049 44.1739 37.6345 44.2324C37.1728 44.6163 36.9875 45.1133 36.8953 45.4424C36.8777 45.5051 36.8635 45.5619 36.8513 45.6104L36.8123 45.752L36.807 45.7633C36.7982 45.7827 36.7878 45.7965 36.7781 45.792L36.6795 45.7227C36.6641 45.7096 36.649 45.6943 36.6331 45.6783L36.6189 45.6641C36.5175 45.5629 36.4059 45.4208 36.3562 45.2852C36.3512 45.2714 36.3483 45.2537 36.3464 45.2324C36.3445 45.2101 36.3446 45.184 36.3464 45.1543C36.3516 45.0707 36.3724 44.96 36.4138 44.833C36.4839 44.618 36.612 44.3567 36.8201 44.1025C36.8855 44.0227 36.9599 43.9449 37.0418 43.8682C37.0873 43.8254 37.1353 43.7832 37.1863 43.7422C37.3932 43.5759 37.6444 43.4248 37.95 43.3115C38.0452 43.2762 38.1378 43.2464 38.2273 43.2207C38.3212 43.1937 38.412 43.1722 38.4998 43.1553C39.6652 42.9306 40.2966 43.5648 40.6023 44.3994C40.9854 45.4459 40.5151 46.1369 40.1707 46.4746C40.0669 46.5762 39.9728 46.6431 39.9187 46.6807C39.8882 46.7019 39.8699 46.7168 39.8699 46.7168C39.8739 46.7193 41.8301 47.9367 41.8562 47.9951C41.8761 48.0499 41.8562 48.1093 41.6033 48.2031C41.5612 48.2187 41.5224 48.2336 41.4869 48.2481C41.398 48.2844 41.3234 48.3147 41.2439 48.3223C41.1849 48.3278 41.1225 48.3206 41.0476 48.2949C41.0222 48.2863 40.9951 48.2759 40.9666 48.2627C40.8304 48.1993 40.4129 47.9202 40.0271 47.6562C39.6409 47.392 39.2862 47.1427 39.2791 47.1377C39.2851 47.1528 39.7346 48.2709 39.8543 48.5977C39.8993 48.7208 39.8943 48.8222 39.865 48.9023C39.8533 48.9342 39.8368 48.962 39.8191 48.9873C39.8032 49.0102 39.7856 49.0302 39.7673 49.0479C39.7213 49.0922 39.6723 49.1212 39.6384 49.1338C39.5389 49.1707 39.3843 49.2277 39.3142 49.0361C39.2858 48.9587 39.1053 48.5141 38.8719 47.94ZM44.23 42.079L44.2341 42.0928L44.2918 42.2578C44.5672 43.0477 44.9442 44.1277 45.0808 44.501C45.1188 44.6048 45.1577 44.7242 45.198 44.8486L45.3484 45.292C45.5101 45.7272 45.7113 46.0947 46.0046 45.9863C46.0533 45.9683 46.0965 45.9421 46.1355 45.9092C46.1982 45.8564 46.2482 45.7859 46.2888 45.7021C46.3907 45.4921 46.4303 45.1994 46.4343 44.8945C46.4353 44.8226 46.4349 44.75 46.4324 44.6777C46.4224 44.3897 46.3881 44.1062 46.3533 43.8867C46.3185 43.6669 46.2827 43.5113 46.2712 43.4795C46.2499 43.4213 46.2212 43.3835 46.1912 43.3447C46.1584 43.302 46.122 43.2547 46.0935 43.1768C46.0832 43.1484 46.0792 43.1213 46.0798 43.0957C46.0827 42.9861 46.1848 42.9 46.3865 42.8252C46.6355 42.7328 46.858 42.7202 46.8943 42.8184C46.9095 42.86 46.9175 42.8999 46.9265 42.9453C46.9385 43.0068 46.9537 43.0797 46.991 43.1816C47.0461 43.3317 47.221 43.4459 47.4349 43.5857C47.7728 43.8063 48.2091 44.0914 48.4246 44.6797C48.6398 45.2678 48.2534 45.7739 47.7283 45.9688C47.5992 46.0166 47.4778 46.0345 47.3679 46.0342C47.0382 46.0331 46.813 45.8685 46.8035 45.8613C46.7999 45.8691 46.7509 45.9691 46.6609 46.0957C46.5407 46.2649 46.3463 46.4808 46.0789 46.5801C46.0375 46.5954 45.9966 46.6054 45.9568 46.6133C45.8908 46.6264 45.8274 46.6316 45.7664 46.6279C45.6029 46.6181 45.4591 46.5557 45.3435 46.4824C45.1585 46.3651 45.0462 46.2197 45.0447 46.2178C45.0444 46.2297 45.0312 46.6485 44.7996 46.9404C44.761 46.989 44.7165 47.0342 44.6648 47.0732C44.6132 47.1123 44.5546 47.1452 44.488 47.1699C44.4622 47.1795 44.4368 47.1868 44.4119 47.1924C44.1357 47.2543 43.9206 47.0858 43.823 46.9883C43.7875 46.9528 43.767 46.9269 43.7654 46.9248C43.7654 46.9248 43.7403 47.0371 43.6638 47.1797C43.5704 47.3538 43.3997 47.5731 43.0964 47.6855C42.9238 47.7494 42.733 47.757 42.5437 47.7148C42.5058 47.7064 42.468 47.696 42.4304 47.6836C42.3553 47.6588 42.2808 47.6269 42.2087 47.5869C42.1727 47.5669 42.1371 47.5452 42.1023 47.5215C42.0326 47.4741 41.9659 47.419 41.9031 47.3574C41.8717 47.3266 41.8415 47.294 41.8123 47.2598C41.6957 47.1233 41.5975 46.9603 41.5291 46.7734C41.4963 46.6838 41.4685 46.5968 41.4441 46.5127C41.2479 45.8355 41.316 45.3389 41.4861 45C41.5273 44.918 41.574 44.8451 41.6248 44.7812C41.679 44.7131 41.7378 44.6556 41.7976 44.6074C41.8813 44.54 41.9672 44.4911 42.0486 44.4609C42.0546 44.4587 42.0607 44.4571 42.0668 44.4555C42.0718 44.4542 42.0769 44.4528 42.0818 44.4512C42.2353 44.399 42.3669 44.3865 42.4734 44.3936C42.584 44.4009 42.6667 44.4279 42.7166 44.4492C42.7498 44.4634 42.7686 44.4749 42.7712 44.4766C42.7356 44.379 42.7123 44.3117 42.7166 44.2617C42.7183 44.2404 42.7259 44.223 42.739 44.207C42.7566 44.1858 42.7842 44.1672 42.8269 44.1514C42.9022 44.1235 43.0193 44.1062 43.1209 44.1055C43.1953 44.105 43.2616 44.1137 43.2976 44.1338C43.3109 44.1411 43.3199 44.1496 43.324 44.1602C43.3304 44.1777 43.3551 44.2434 43.3914 44.3408L43.4024 44.3703L43.4177 44.4111C43.5534 44.7763 43.8033 45.4497 43.9558 45.8662L43.9714 45.9092C44.1697 46.4512 44.2633 46.7062 44.4929 46.6211C44.5124 46.6139 44.531 46.6029 44.5496 46.5898C44.7277 46.4647 44.8569 46.0842 44.7859 45.7021C44.7747 45.642 44.7577 45.5817 44.7361 45.5225C44.6765 45.3596 44.4992 44.8765 44.2898 44.3061L44.2826 44.2865L43.7166 42.7441L43.6492 42.5605C43.6455 42.5554 43.6426 42.549 43.6404 42.543C43.6126 42.4675 42.8416 40.4512 42.8416 40.4512C42.853 40.4825 42.8547 40.5245 42.8455 40.5723C42.8241 40.6833 42.7421 40.8222 42.5906 40.9297C42.5373 40.9675 42.4766 41.0038 42.405 41.0303C42.2996 41.0694 42.2024 41.093 42.113 41.1045C41.9794 41.1217 41.8634 41.1114 41.7634 41.085C41.6968 41.0674 41.6374 41.0426 41.5847 41.0137C41.3473 40.8833 41.2468 40.6709 41.2468 40.6709C41.2469 40.6806 41.2524 41.4531 40.5886 41.6992C40.505 41.7301 40.4159 41.742 40.324 41.7402C39.9574 41.7332 39.5464 41.5002 39.2615 41.3008C39.0473 41.151 38.9041 41.0205 38.9041 41.0205C38.9041 41.0205 39.003 41.2968 39.0984 41.5615C39.1542 41.7165 39.209 41.8678 39.242 41.958C39.2754 42.0496 39.2694 42.1204 39.238 42.1768C39.2278 42.1951 39.2151 42.212 39.2 42.2275C39.1845 42.2435 39.1667 42.2579 39.1472 42.2715C39.0887 42.312 39.014 42.343 38.9382 42.3711C38.7873 42.4269 38.6989 42.3603 38.6502 42.2861C38.6339 42.2614 38.6212 42.2361 38.613 42.2139C38.5797 42.123 38.3572 41.5244 38.3572 41.5244C38.4074 41.6615 38.3862 41.845 38.3113 42.0332C38.2853 42.0984 38.2528 42.1639 38.2146 42.2285C38.06 42.4902 37.8113 42.7331 37.5154 42.8428C37.4791 42.8562 37.4416 42.8682 37.4031 42.8789C37.3649 42.8895 37.3258 42.8987 37.2859 42.9062C37.2054 42.9215 37.1216 42.9301 37.0359 42.9307C36.8645 42.9318 36.6857 42.9012 36.5115 42.8262C36.4677 42.8074 36.4246 42.7853 36.3816 42.7607C36.1247 42.614 35.8847 42.3617 35.7009 41.9639C35.6703 41.8976 35.6403 41.8274 35.613 41.7529C35.4892 41.4145 35.4557 41.1124 35.4802 40.8525C35.4999 40.6443 35.5567 40.463 35.6355 40.3115C35.7443 40.1022 35.895 39.9507 36.0437 39.8623C36.083 39.839 36.1216 39.8189 36.1599 39.8047C36.5104 39.6748 36.8251 39.6339 37.0711 39.748C37.1571 39.7881 37.2131 39.9633 37.24 40.0479L37.2468 40.0693L37.2507 40.0811C37.2835 40.1705 37.2505 40.2602 37.2087 40.3115C37.1905 40.3338 37.171 40.3491 37.1541 40.3535C37.1461 40.3557 37.1388 40.3554 37.1326 40.3525C37.1277 40.3503 37.1208 40.3464 37.114 40.3428C37.0495 40.3073 36.8956 40.2243 36.5945 40.3359C36.4555 40.3876 36.3294 40.4928 36.2439 40.6416C36.2351 40.6569 36.2264 40.6723 36.2185 40.6885C36.1169 40.8979 36.0935 41.184 36.2195 41.5283C36.407 42.0405 36.7754 42.338 37.1267 42.3506C37.1811 42.3526 37.2351 42.3489 37.2878 42.3369C37.3139 42.331 37.3396 42.3229 37.365 42.3135C37.4 42.3005 37.4336 42.287 37.4656 42.2725C37.5364 42.2403 37.598 42.2017 37.655 42.1631C37.7071 42.1278 37.7531 42.0904 37.7947 42.0508C38.3393 41.5317 38.0308 40.6876 38.03 40.6855L38.0238 40.6698C37.9153 40.3936 36.7653 37.4681 36.6804 37.2363C36.6473 37.1452 36.7189 37.0441 36.823 36.96C36.9966 36.82 37.262 36.7274 37.2927 36.8096C37.3214 36.8876 38.6173 40.2959 38.6277 40.3232C38.6377 40.2989 39.3388 38.606 39.4255 38.5713C39.5257 38.5342 39.6029 38.5184 39.6658 38.5166C39.7286 38.5149 39.7778 38.5273 39.823 38.5459L39.9871 38.6279C40.1119 38.6859 40.072 38.7608 39.9999 38.8962C39.9792 38.9351 39.9553 38.9802 39.9324 39.0303C39.8298 39.2538 39.3021 40.4437 39.2927 40.4648C39.314 40.5216 39.7834 41.0256 40.2263 41.1963C40.2633 41.2106 40.3003 41.2223 40.3367 41.2314C40.373 41.2406 40.4089 41.2468 40.4441 41.25C40.5142 41.2563 40.5813 41.2495 40.6433 41.2266C40.6747 41.2149 40.7037 41.2007 40.7302 41.1836C40.818 41.127 40.8787 41.0416 40.9216 40.9414C41.0714 40.5916 40.9857 40.0535 40.9158 39.8623C40.8194 39.5989 40.3728 38.3721 40.3728 38.3721C40.3604 38.3381 40.3402 38.2826 40.3367 38.2314C40.3349 38.2058 40.338 38.1811 40.3474 38.1602C40.357 38.1391 40.3731 38.1214 40.4002 38.1113C40.5335 38.0619 40.6671 38.0384 40.7732 38.043C40.8531 38.0464 40.9173 38.066 40.9548 38.1035C40.9673 38.116 40.9771 38.13 40.9832 38.1465C41.0056 38.2079 41.1261 38.5353 41.2556 38.8848C41.3217 39.063 41.3902 39.2474 41.449 39.4057L41.574 39.7422L41.5934 39.7954L41.6003 39.8145C41.6519 39.9553 41.8363 40.4564 42.157 40.5615C42.2382 40.5882 42.3277 40.5902 42.4265 40.5537C42.5488 40.5083 42.6128 40.4103 42.6384 40.2881C42.7157 39.9215 42.4558 39.3408 42.4558 39.3408L41.8884 37.791C41.8869 37.787 41.8694 37.7381 41.8718 37.6816C41.8725 37.6659 41.875 37.6498 41.8796 37.6338C41.8837 37.6198 41.889 37.6059 41.8972 37.5928C41.9146 37.5648 41.9424 37.5398 41.9861 37.5234L42.115 37.4805C42.1852 37.4598 42.2466 37.4473 42.2996 37.4414C42.3521 37.4355 42.3964 37.4366 42.4334 37.4434C42.5078 37.457 42.5522 37.4941 42.572 37.5479L43.9343 41.2686C43.9501 41.2927 43.965 41.3269 43.9812 41.3711C44.0029 41.4302 44.0908 41.6812 44.2087 42.0195L44.2244 42.0625L44.23 42.079ZM30.3036 40.5849L30.2996 40.5752C30.2996 40.5752 31.1491 41.4436 32.0252 42.4014C32.578 43.0058 33.1416 43.6457 33.5086 44.126C33.5086 44.126 33.6203 44.2607 33.7468 44.2139C33.8737 44.1666 34.1665 43.9854 34.0632 43.7031C33.9953 43.5177 33.2461 41.553 32.7214 40.1777C32.4388 39.437 32.2213 38.8667 32.2107 38.8379C32.1876 38.7777 31.9957 38.7577 31.824 38.7783C31.7631 38.7856 31.6978 38.8012 31.6505 38.8187C31.6534 38.8177 31.6505 38.8187 31.6505 38.8187C31.6484 38.8194 31.6375 38.8232 31.6375 38.8232L31.6248 38.8281C31.5852 38.8425 31.5505 38.8554 31.5222 38.8701C31.4365 38.9148 31.4088 38.9792 31.4793 39.1719C31.5796 39.4457 32.8201 42.4759 32.8347 42.5117C32.8082 42.4834 31.3455 40.9241 30.0496 39.6289C30.0461 39.6254 29.9851 39.5662 29.8367 39.5596C29.8062 39.5582 29.7722 39.5595 29.7341 39.5635C29.6575 39.5715 29.5647 39.5918 29.4539 39.6328C29.3862 39.6578 29.3374 39.6792 29.3074 39.709C29.2869 39.7291 29.2751 39.753 29.2722 39.7852C29.2709 39.801 29.2722 39.8187 29.2752 39.8389L29.2898 39.9072C29.2971 39.9328 29.3065 39.9613 29.3181 39.9932C29.4113 40.2476 31.2708 44.995 31.2869 45.0361C31.2869 45.0361 31.3645 45.0972 31.5398 45.0322C31.5715 45.0205 31.6037 45.0008 31.6365 44.9766C31.6662 44.9547 31.6953 44.9286 31.7214 44.8955C31.8264 44.7623 31.8861 44.5357 31.7576 44.1846C31.5696 43.6713 30.4055 40.8334 30.3036 40.5849ZM6.53289 13.6413L6.5066 13.6426L6.44703 13.6445L6.32594 13.6504C5.66436 13.6918 5.02515 13.8167 4.41871 14.0146C4.29752 14.0542 4.17783 14.0973 4.05933 14.1426C3.49913 14.3568 2.97074 14.6355 2.48121 14.9678C2.3489 15.0576 2.21888 15.1504 2.09254 15.248C1.9934 15.3246 1.89583 15.4032 1.80055 15.4844C1.51535 15.7275 1.24741 15.991 0.999765 16.2725C1.04502 16.4835 1.11332 16.7204 1.21266 16.9785C1.26221 17.1073 1.31993 17.2412 1.38648 17.3799C1.45312 17.5188 1.52799 17.6628 1.61402 17.8105C1.66978 17.9061 1.72342 18.0078 1.77418 18.1143C1.92637 18.4335 2.05688 18.7963 2.16773 19.1729C2.20468 19.2983 2.23946 19.4254 2.27223 19.5527C2.63108 20.9479 2.74396 22.3887 2.74488 22.4004L3.70289 20.8613L2.74683 23.374C2.74926 23.3788 3.61227 25.0808 3.82789 26.7393C3.8587 26.9762 3.87572 27.2123 3.87574 27.4424C3.87574 27.6398 3.86528 27.8387 3.84547 28.0361C3.82569 28.2334 3.79656 28.4293 3.76148 28.6211C3.70786 28.9159 3.63721 29.201 3.56226 29.4688C3.39134 30.0794 3.18864 30.5961 3.05348 30.9102C2.96483 31.1161 2.90601 31.2363 2.90601 31.2363C2.91453 31.243 3.6921 31.857 4.28687 33.4072C4.88474 34.9656 5.64284 36.4905 6.2273 37.2793L6.67945 35.8359V40.1143L7.31715 40.4883L7.47633 42.4941L8.44703 43.3506L8.29967 37.8417C8.28911 37.8289 8.20092 37.7215 8.0984 37.584C7.98905 37.4373 7.8632 37.256 7.79566 37.1201L8.44605 37.709L7.80836 36.7461L7.13062 33.0957C7.13062 33.0957 7.07118 33.0992 6.9773 33.0889C6.9692 33.088 6.96062 33.0872 6.95191 33.0859L6.9275 33.082C6.87782 33.0747 6.82158 33.0624 6.76051 33.0459C6.73115 33.0381 6.70082 33.0291 6.66969 33.0186L6.6492 33.0114L6.63648 33.0068C6.58879 32.9893 6.53867 32.9696 6.48902 32.9443L6.32594 32.8447L6.30543 32.8311C6.21799 32.7665 6.13359 32.6855 6.05543 32.5859C6.04592 32.5738 6.03639 32.5615 6.02711 32.5488C5.93087 32.4172 5.84616 32.2547 5.7859 32.0527C5.71948 31.8306 5.6214 31.5544 5.51148 31.2449L5.49976 31.2119L5.44703 31.0635C5.4291 31.0129 5.41119 30.9613 5.39313 30.9093L5.35914 30.8115C5.27279 30.5644 5.18504 30.304 5.1023 30.0391C5.05753 29.8958 5.01464 29.7511 4.97437 29.6064L4.97159 29.5964C4.96364 29.5679 4.9557 29.5393 4.94801 29.5107C4.94419 29.4966 4.94008 29.4824 4.93598 29.4683C4.93104 29.4512 4.92608 29.4341 4.92164 29.417L4.90016 29.3271C4.87199 29.2145 4.84518 29.1023 4.82203 28.9912C4.73889 28.5907 4.6927 28.2049 4.70973 27.8633C4.71395 27.7783 4.72358 27.6963 4.73609 27.6172C4.75374 27.5058 4.77813 27.4002 4.81422 27.3027C4.84278 27.2259 4.87551 27.1571 4.90797 27.0938C4.94052 27.0301 4.97458 26.9731 5.01051 26.9219C5.06217 26.8483 5.1163 26.7869 5.17359 26.7363C5.21037 26.7038 5.24831 26.6764 5.28687 26.6523C5.36253 26.6052 5.44014 26.5713 5.52027 26.5518C5.79289 26.485 6.08228 26.5603 6.32594 26.6523C6.34207 26.6584 6.35808 26.6647 6.37379 26.6709C6.40193 26.6821 6.43889 26.6977 6.46558 26.709L6.48601 26.7176L6.51767 26.7309L6.54176 26.7412L6.58529 26.7603L6.62867 26.7793L6.64234 26.7852L6.67435 26.7987L6.69117 26.8057L6.99683 30.9717L7.26246 30.9443L7.25855 30.9121L7.25322 30.8668L7.24781 30.8203C7.21923 30.5779 7.15544 29.999 7.1023 29.2471C7.10146 29.2351 7.10089 29.223 7.10031 29.2109C7.09976 29.1992 7.0992 29.1875 7.0984 29.1758C7.08062 28.9156 7.06479 28.6358 7.05152 28.3428C7.03517 27.982 7.02162 27.6015 7.01832 27.2129V27.0049C7.0183 26.9759 7.01857 26.9467 7.01884 26.9176L7.0193 26.8604C7.01985 26.7493 7.02108 26.6379 7.0232 26.5264C7.02375 26.4976 7.02462 26.4689 7.02549 26.4401L7.02711 26.3838C7.03896 25.9184 7.06376 25.4535 7.11109 25.0098C7.15375 24.6084 7.19654 24.2404 7.23805 23.9004C7.24451 23.8473 7.25111 23.7949 7.25758 23.7432C7.29843 23.417 7.33767 23.117 7.37965 22.8389L7.4734 22.2656C7.63643 21.341 7.8239 20.6625 8.08668 19.9805C8.24524 19.5698 8.62446 18.8737 9.10914 18.1006C9.28578 17.8188 9.47621 17.5268 9.67652 17.2354C10.0007 16.7637 10.3478 16.292 10.698 15.8652C10.9206 15.5941 11.1427 15.3395 11.3611 15.1152C10.2503 14.3058 8.91847 13.7853 7.4734 13.6631C7.38241 13.6554 7.2909 13.6499 7.19898 13.6455C7.07145 13.6394 6.94316 13.6357 6.81422 13.6357C6.73219 13.6357 6.65052 13.6371 6.5691 13.6396C6.55708 13.64 6.54498 13.6407 6.53289 13.6413ZM6.65876 11.7925L6.6443 11.792C6.58388 11.7894 6.52311 11.7871 6.46363 11.7861C6.4523 11.7859 6.44088 11.786 6.42949 11.7861L6.40308 11.7861L6.37142 11.7857C6.35624 11.7854 6.34107 11.7851 6.32594 11.7852C6.13434 11.7856 5.94711 11.794 5.76441 11.8086C5.57761 11.8235 5.39559 11.8453 5.21851 11.873C5.06871 11.8965 4.92259 11.9247 4.78004 11.9561C4.70476 11.9726 4.63058 11.9903 4.55738 12.0088C4.04684 12.1376 3.58814 12.3124 3.18629 12.5C3.08247 12.5485 2.98249 12.5976 2.88648 12.6475C2.12626 13.0419 1.61383 13.4606 1.40699 13.6445C1.33942 13.7046 1.30348 13.7393 1.30348 13.7393V14.9053C1.41602 14.816 1.52845 14.7306 1.64039 14.6484C1.75183 14.5667 1.86268 14.488 1.9734 14.4131C2.68249 13.9333 3.37658 13.5932 4.0398 13.3564C4.18234 13.3056 4.32304 13.2583 4.46266 13.2168C4.69063 13.1491 4.91437 13.0928 5.13355 13.0479C5.52433 12.9677 5.90019 12.9216 6.25758 12.9014L6.32594 12.8975C6.38386 12.8947 6.44484 12.8931 6.50172 12.8916L6.53212 12.8908C6.56415 12.8898 6.59601 12.8889 6.62769 12.8887C6.67725 12.8883 6.72645 12.8882 6.77516 12.8887C6.87256 12.8897 6.96828 12.8929 7.06226 12.8975C7.10919 12.8997 7.15584 12.9022 7.20191 12.9053C7.29412 12.9114 7.38485 12.9197 7.4734 12.9287C8.60538 13.0442 9.43031 13.3817 9.7732 13.5439L9.94898 13.6328L9.33473 12.3955C8.68553 12.1309 8.06327 11.9643 7.4734 11.873C7.20016 11.8308 6.93359 11.8048 6.67457 11.793L6.65876 11.7925ZM52.8855 40.4932C53.2383 40.4134 53.4548 40.6465 53.5476 40.7812C53.5809 40.8296 53.5984 40.8651 53.6003 40.8691C53.6353 40.9645 53.7501 41.2609 53.8855 41.6084C54.0629 42.0636 54.2743 42.6079 54.3855 42.9062C54.3951 42.932 54.4048 42.9556 54.4128 42.9775C54.569 43.4041 54.437 43.4505 54.239 43.5195C54.2198 43.5262 54.1997 43.5335 54.1795 43.541L54.0964 43.5674C54.004 43.5924 53.9231 43.597 53.8601 43.585C53.7944 43.5724 53.7481 43.5421 53.7302 43.4932C53.6879 43.3779 52.89 41.3301 52.8884 41.3262C52.3511 42.104 52.6266 43.8681 52.6707 43.9912C52.6761 44.006 52.6796 44.0198 52.6814 44.0322V44.0664C52.6734 44.1094 52.6344 44.1401 52.5574 44.1748C52.5191 44.1921 52.4715 44.2101 52.4138 44.2314L52.3162 44.2646C52.2695 44.2785 52.2275 44.2858 52.1902 44.29C52.0583 44.305 51.9816 44.2599 51.9373 44.1387L51.0867 41.8174C50.956 42.1023 50.6029 42.2977 50.5955 42.3018C50.5983 42.3055 50.7655 42.5213 50.8836 42.8438C51.1037 43.4455 51.0799 44.0858 50.7791 44.5488C50.7235 44.6343 50.6586 44.7132 50.5837 44.7852C50.4498 44.914 50.2863 45.0205 50.0886 45.0938C50.032 45.1147 49.9766 45.1312 49.9226 45.1436C49.8689 45.1558 49.8165 45.1637 49.7654 45.168C49.6113 45.1809 49.4694 45.1586 49.3386 45.1094C48.8592 44.9287 48.5328 44.3838 48.3416 43.8613C48.2894 43.7189 48.2558 43.5735 48.2371 43.4307C48.2246 43.3353 48.219 43.2411 48.2195 43.1494C48.2199 43.0692 48.2258 42.9912 48.2351 42.916C48.2418 42.8623 48.2498 42.81 48.2605 42.7598C48.2776 42.6795 48.2997 42.6041 48.3259 42.5352C48.4047 42.3285 48.5206 42.1794 48.6541 42.1299C48.9254 42.0293 49.0394 42.0217 49.073 42.1123C49.0782 42.1265 49.069 42.148 49.0525 42.1797C49.0462 42.1918 49.0393 42.2056 49.031 42.2207C48.9226 42.4173 48.672 42.873 49.0154 43.8115C49.1222 44.1031 49.3737 44.6243 49.7996 44.6143C49.8602 44.6129 49.9242 44.6003 49.992 44.5752C50.1179 44.5284 50.2173 44.4503 50.2937 44.3506C50.4236 44.1814 50.4865 43.9498 50.4929 43.7002C50.4939 43.6605 50.4937 43.6204 50.492 43.5801C50.4885 43.4996 50.4794 43.418 50.4656 43.3369C50.4447 43.2149 50.412 43.0937 50.3699 42.9785C50.3511 42.9272 50.3274 42.8723 50.3025 42.8184C50.2886 42.7882 50.2739 42.7586 50.2597 42.7298C50.2563 42.7229 50.2531 42.7157 50.2498 42.709C50.2473 42.7041 50.2444 42.6992 50.242 42.6943C50.1809 42.5737 50.1267 42.479 50.1248 42.4756C50.0605 42.4994 50.0018 42.5165 49.948 42.5273C49.5724 42.6029 49.443 42.3928 49.4197 42.3291C49.4062 42.2923 49.3635 42.1587 49.3894 42.0098C49.4154 41.8604 49.5104 41.6952 49.7761 41.5967C49.8424 41.5721 49.9029 41.5587 49.9578 41.5537C50.0126 41.5487 50.0618 41.5527 50.1062 41.5625C50.3691 41.621 50.4566 41.8988 50.4597 41.9092C50.7122 41.8156 50.8547 41.6159 50.9295 41.4678C50.9781 41.3712 50.9983 41.2965 51.0007 41.2871C51.0046 41.2788 51.0081 41.2706 51.0114 41.2628C51.0162 41.2515 51.0204 41.2407 51.0242 41.2305C51.0483 41.1657 51.0662 41.1179 51.1658 41.0811C51.1795 41.076 51.1946 41.0717 51.2104 41.0672L51.2302 41.0615C51.2432 41.0577 51.2565 41.0539 51.27 41.0505C51.2766 41.0489 51.2831 41.0473 51.2898 41.0459C51.4061 41.0209 51.535 41.0224 51.5769 41.1357C51.6267 41.2716 52.026 42.5022 52.1375 42.8457C52.1233 42.7967 52.1122 42.7453 52.1023 42.6924C52.0329 42.3225 52.0639 41.8677 52.1697 41.4678C52.1848 41.4108 52.2015 41.3551 52.2195 41.3008C52.2557 41.1917 52.2973 41.0886 52.3445 40.9951C52.423 40.8397 52.5172 40.7121 52.6218 40.624C52.6742 40.5798 52.728 40.5441 52.7859 40.5225C52.82 40.5098 52.8536 40.5004 52.8855 40.4932ZM33.8435 40.8145C33.7946 40.6748 34.191 40.5146 34.3357 40.4609C34.4518 40.418 34.5104 40.5253 34.5291 40.5693L34.5359 40.5859C34.8792 41.4881 35.282 42.5533 35.3826 42.8496C35.5659 43.389 35.321 43.6305 35.1443 43.6914C34.9705 43.7511 34.8947 43.6913 34.8923 43.6895L34.8875 43.6763C34.8321 43.5247 34.316 42.112 33.8435 40.8145ZM33.532 39.543C33.6525 39.4125 33.8459 39.3667 34.0154 39.4453C34.2261 39.5432 34.3184 39.7947 34.2214 40.0068C34.1772 40.1032 34.1007 40.1734 34.0115 40.2139C33.9534 40.2401 33.8905 40.255 33.8259 40.2529C33.7711 40.2512 33.7158 40.2384 33.6628 40.2139C33.5839 40.1771 33.5222 40.1184 33.4802 40.0488C33.4522 40.0023 33.4333 39.9511 33.4246 39.8975C33.42 39.8695 33.4186 39.8411 33.4197 39.8125C33.4218 39.7588 33.433 39.7042 33.4568 39.6523C33.4603 39.6447 33.4656 39.6382 33.4695 39.6309C33.4869 39.5982 33.5079 39.569 33.532 39.543ZM11.0105 20.9951L9.76539 21.3838L11.2498 19.9795L15.6345 20.2197L16.6443 23.5352L14.5447 25.9424H12.7908V25.4082L14.3054 25.3018L15.0769 24.3389C15.0716 24.3326 15.0347 24.2894 14.9734 24.2285C14.8068 24.0631 14.4591 23.7598 14.0681 23.6631C13.9898 23.6437 13.9096 23.6328 13.8289 23.6328C13.8309 23.659 13.8328 23.6861 13.8328 23.7129C13.8328 23.9057 13.7744 24.0849 13.6746 24.2334C13.5751 24.3813 13.4346 24.4989 13.2693 24.5693C13.1586 24.6166 13.0368 24.6426 12.9089 24.6426C12.8454 24.6426 12.7833 24.6363 12.7234 24.624C12.6332 24.6055 12.548 24.5732 12.4695 24.5303C12.4432 24.5159 12.4179 24.5002 12.3933 24.4834C12.2462 24.3833 12.1293 24.2418 12.0593 24.0752C12.0476 24.0472 12.0371 24.0186 12.0281 23.9893C12.0012 23.9019 11.9861 23.8091 11.9861 23.7129C11.9861 23.6894 11.987 23.6664 11.989 23.6436C11.9663 23.6459 11.8261 23.6643 11.6004 23.7432C11.3195 23.8412 10.9062 24.0337 10.4255 24.418H9.65504L11.5945 22.5195H14.0398L13.4812 21.1562L11.0105 20.9951ZM12.031 4.75684C12.2108 4.60656 12.4 4.46499 12.6004 4.33594L13.3015 5.37695C13.1201 5.49378 12.9496 5.62167 12.7898 5.75879C12.4485 6.05173 12.1581 6.38914 11.9148 6.75586C11.8313 6.88174 11.7535 7.011 11.6814 7.14355C11.5663 7.35539 11.4646 7.57438 11.3787 7.7998C10.5732 9.9124 11.0466 12.5288 12.7439 13.9102C12.2066 14.2377 11.6905 14.6347 11.6804 14.6426C11.5892 14.5562 11.5014 14.4672 11.4168 14.376C10.2297 13.0964 9.68928 11.3545 9.75465 9.63477C9.75931 9.51218 9.76727 9.38976 9.77808 9.26758C9.8115 8.88964 9.87492 8.5147 9.96656 8.14746C10.1719 7.32485 10.521 6.54191 11.0115 5.85742C11.3022 5.45169 11.6429 5.0814 12.031 4.75684Z" fill="#CB2C2E"/>
</svg>
