<svg width="52" height="52" viewBox="0 0 52 52" fill="none" xmlns="http://www.w3.org/2000/svg">
<rect width="52" height="52" fill="white"/>
<path d="M17.4468 12.8896C18.0532 12.1639 18.7122 11.3822 19.6446 11.0878C20.6927 10.8109 21.5831 11.6346 22.2421 12.3357C23.9632 14.3092 25.2216 16.6368 26.3889 18.9749C27.0198 17.5552 27.8085 16.2057 28.6218 14.8876C29.3999 13.6923 30.2062 12.4794 31.3314 11.5715C31.8502 11.1719 32.5688 10.7933 33.2173 11.1298C34.1356 11.6136 34.8262 12.4198 35.4782 13.2085C36.8558 14.9823 37.9354 16.9663 38.9134 18.9819C40.1333 21.5794 41.1919 24.2891 41.63 27.1355C41.7597 28.45 41.8824 29.9328 41.0832 31.0825C40.4698 31.9834 39.299 32.2954 38.2614 32.1131C37.3605 31.7941 36.5719 31.2052 35.983 30.4586C34.5808 28.7269 33.7501 26.6307 32.9789 24.5625C32.8667 24.198 32.7265 23.8439 32.6073 23.4899C32.5302 23.8544 32.425 24.2155 32.3059 24.573C31.5172 26.6693 30.6794 28.8075 29.2317 30.5462C28.6533 31.2578 27.8891 31.8012 27.0233 32.1131C25.7754 32.3725 24.5731 31.724 23.7669 30.8056C22.193 29.0915 21.3167 26.8761 20.5104 24.7203C20.3562 24.2786 20.1985 23.8369 20.0863 23.3777C19.9566 23.8369 19.8024 24.2961 19.6376 24.7378C18.912 26.7218 18.0777 28.7199 16.7632 30.392C16.0446 31.2473 15.1087 32.0886 13.9414 32.1482C12.8583 32.2428 11.8102 31.5418 11.3966 30.5567C10.8077 29.1896 10.9794 27.6473 11.2423 26.2206C11.8067 23.4934 12.8443 20.8889 14.0746 18.4035C15.0176 16.4721 16.0902 14.5862 17.4433 12.8896M18.0567 13.496C16.7247 15.1926 15.6591 17.096 14.7056 19.0275C13.5208 21.5303 12.4447 24.1349 11.989 26.8796C11.8242 27.6402 11.8242 28.429 11.9013 29.2001C11.996 29.9258 12.2834 30.7075 12.9494 31.079C13.5909 31.4506 14.4112 31.3034 14.993 30.8897C16.0306 30.1641 16.7247 29.0529 17.3206 27.9557C18.6035 25.5055 19.4413 22.8484 20.0723 20.1738C20.7488 22.9185 21.5971 25.6527 22.9466 28.1555C23.483 29.081 24.0473 30.0414 24.9201 30.6829C25.3618 31.0825 25.9402 31.3595 26.5466 31.2894C27.2231 31.2193 27.784 30.7881 28.2607 30.3289C29.0669 29.4981 29.6558 28.478 30.1746 27.4545C31.2823 25.1865 32.043 22.7607 32.6424 20.321C33.3855 23.283 34.3144 26.2521 35.9058 28.8812C36.5017 29.7996 37.2028 30.7495 38.2509 31.1842C38.987 31.4857 39.9229 31.2193 40.3471 30.5357C40.8589 29.7119 40.9009 28.6919 40.8238 27.7559C40.7187 26.2416 40.277 24.7693 39.7932 23.3321C38.8223 20.5629 37.5498 17.8953 36.0005 15.4099C35.2819 14.3022 34.5388 13.184 33.5327 12.3007C33.1787 11.9887 32.6494 11.6872 32.2007 11.9992C31.3349 12.5285 30.739 13.3663 30.1326 14.162C28.6603 16.2582 27.4475 18.5438 26.452 20.8959C26.4274 20.9309 26.3573 21.001 26.3293 21.0361C26.2416 20.7662 26.1575 20.5068 26.0453 20.2474C25.0253 18.039 23.8896 15.8656 22.4454 13.9096C21.9511 13.2611 21.4428 12.6021 20.7733 12.1254C20.4894 11.9256 20.1073 11.7433 19.7708 11.9186C19.0522 12.2481 18.551 12.8966 18.0567 13.4925" fill="white"/>
<path d="M18.0599 13.496C18.5542 12.9001 19.0624 12.2586 19.781 11.9291C20.1175 11.7573 20.4996 11.9291 20.7836 12.1359C21.4496 12.6126 21.9613 13.2786 22.4556 13.9201C23.8928 15.8866 25.0355 18.0495 26.0556 20.2579C26.1783 20.5103 26.2624 20.7767 26.3395 21.0466C25.0075 18.7856 23.7946 16.4405 22.1331 14.3969C21.6494 13.8255 21.1376 13.219 20.4365 12.9176C20.0369 12.7458 19.6303 12.9702 19.3008 13.1875C18.1055 14.19 17.2221 15.4975 16.3914 16.7981C14.4354 19.9143 12.9632 23.3356 11.9922 26.8831C12.4514 24.1383 13.517 21.5338 14.7088 19.031C15.6518 17.0995 16.7174 15.1961 18.0494 13.4995" fill="#9E252F"/>
<path d="M32.2041 11.9922C32.6527 11.6803 33.1821 11.9852 33.5361 12.2937C34.5386 13.1665 35.2852 14.2848 36.0038 15.403C37.5532 17.8953 38.8361 20.5524 39.7966 23.3252C40.2803 24.7624 40.722 26.2241 40.8272 27.749C40.6624 26.6939 40.3855 25.6528 40.0315 24.6502C39.1131 21.888 37.8406 19.2379 36.3018 16.7736C35.6253 15.7185 34.9067 14.6704 34.0409 13.7695C33.6938 13.4224 33.3223 13.0579 32.8455 12.9036C32.474 12.7915 32.134 13.0509 31.8325 13.2331C31.0263 13.8641 30.4058 14.6774 29.8064 15.5011C28.7513 16.9979 27.8084 18.5754 26.9566 20.1949C26.8164 20.4543 26.6446 20.6961 26.4553 20.9135C27.4508 18.5508 28.6637 16.2723 30.1359 14.1796C30.7423 13.3734 31.3488 12.5251 32.2041 11.9992" fill="#9E252F"/>
<path d="M19.308 13.184C19.6375 12.9667 20.0441 12.7424 20.4437 12.9141C21.1448 13.2156 21.6566 13.822 22.1403 14.3934C23.8018 16.437 25.0147 18.7822 26.3397 21.0431C25.5089 23.4058 24.5204 25.7789 24.4608 28.3133C24.4188 29.1266 24.6326 29.9223 24.9376 30.676C24.0647 30.0345 23.4934 29.074 22.9641 28.1486C21.6215 25.6457 20.7662 22.9185 20.0897 20.1668C19.606 17.8813 19.1538 15.5432 19.3115 13.1805" fill="#F79135"/>
<path d="M31.8433 13.2191C32.1448 13.0369 32.4848 12.7775 32.8563 12.8896C33.3331 13.0439 33.7046 13.4084 34.0517 13.7555C34.9175 14.6634 35.6361 15.7045 36.3126 16.7596C37.8549 19.2274 39.1274 21.8775 40.0423 24.6362C40.4068 25.6387 40.6732 26.6798 40.838 27.735C40.9151 28.6709 40.873 29.691 40.3613 30.5148C39.9371 31.2088 39.0117 31.4682 38.2651 31.1632C37.217 30.7391 36.5159 29.7786 35.92 28.8602C34.3286 26.2382 33.3997 23.2691 32.6565 20.3C32.1553 17.99 31.6856 15.6168 31.8433 13.2191Z" fill="#DA4298"/>
<path d="M16.3986 16.7945C17.2294 15.4975 18.1127 14.19 19.308 13.184C19.1538 15.5396 19.6025 17.8847 20.0967 20.1702C19.4658 22.8553 18.6175 25.5019 17.345 27.9522C16.7491 29.0529 16.0551 30.1606 15.0175 30.8862C14.4391 31.3033 13.6154 31.4506 12.9739 31.0755C12.3079 30.7039 12.0204 29.9152 11.9258 29.1966C11.8382 28.4254 11.8487 27.6367 12.0134 26.876C12.9669 23.3251 14.4461 19.9073 16.4021 16.791" fill="#DA4298"/>
<path d="M29.817 15.4871C30.4129 14.6633 31.0368 13.8501 31.8431 13.2191C31.6888 15.6098 32.155 17.99 32.6668 20.3105C32.0709 22.7608 31.2997 25.176 30.1991 27.444C29.6803 28.4746 29.0914 29.4876 28.2852 30.3184C27.819 30.7776 27.2476 31.2088 26.5711 31.2789C25.9646 31.349 25.3863 31.0721 24.9446 30.6725C24.6431 29.9188 24.4258 29.1231 24.4679 28.3098C24.5275 25.7719 25.516 23.3918 26.3467 21.0396C26.3713 21.0046 26.4414 20.9345 26.4694 20.8994C26.6587 20.6751 26.834 20.4402 26.9707 20.1808C27.826 18.5613 28.7619 16.9874 29.8205 15.4871" fill="#F15822"/>
<path d="M14.7202 33.6888C14.2131 33.6791 13.7094 33.6791 13.2091 33.7083C13.1541 34.4782 13.0884 35.2471 13.0227 36.0163L13.0225 36.0186C12.9187 37.2342 12.8148 38.4507 12.7527 39.6732C13.1009 39.6797 13.4457 39.6797 13.7939 39.6797C13.8694 38.9081 13.9209 38.1337 13.9723 37.3595V37.3592C14.0152 36.7129 14.0581 36.0668 14.1151 35.4228C14.5268 36.3412 14.8517 37.2928 15.1764 38.2439C15.3396 38.7219 15.5028 39.1998 15.6769 39.6732C16.0386 39.6895 16.4037 39.6959 16.7654 39.6797C16.9917 39.0912 17.1963 38.4942 17.401 37.8972L17.4012 37.8967C17.6887 37.0578 17.9763 36.2189 18.3239 35.4033C18.4046 36.1735 18.4604 36.9476 18.5162 37.7214L18.5163 37.7219L18.5163 37.7226C18.5633 38.3739 18.6103 39.0249 18.6721 39.6732H19.8282C19.7696 38.3431 19.6568 37.0144 19.544 35.6861C19.4877 35.0235 19.4315 34.361 19.382 33.6986C18.8816 33.6823 18.3813 33.6823 17.881 33.6986C17.6538 34.3377 17.4324 34.9793 17.2109 35.6213L17.2106 35.622C16.9246 36.4506 16.6385 37.2798 16.3395 38.1049C15.9864 37.3159 15.712 36.4986 15.4376 35.6813C15.2128 35.0118 14.9881 34.3424 14.7202 33.6888Z" fill="black"/>
<path fill-rule="evenodd" clip-rule="evenodd" d="M39.1988 35.5169C38.3266 35.2474 37.3902 35.426 36.5485 35.6988L36.5451 35.6955C36.5755 35.978 36.6127 36.2573 36.66 36.53C36.7043 36.5179 36.7488 36.5053 36.7935 36.4922C36.8544 36.4745 36.9156 36.456 36.9771 36.4375L36.9781 36.4372L36.9786 36.4371C37.4763 36.2872 37.9905 36.1324 38.5024 36.2767C38.7956 36.3441 38.8484 36.6336 38.8932 36.8787C38.8959 36.8937 38.8986 36.9084 38.9013 36.9229C38.7212 36.9616 38.5349 36.9916 38.3471 37.0218C37.7314 37.121 37.1011 37.2225 36.6296 37.6405C36.0211 38.1828 36.1191 39.3485 36.9305 39.657C37.6471 39.9103 38.3875 39.6083 38.9453 39.1829C38.9628 39.2578 38.9788 39.332 38.9947 39.4059L38.9949 39.4067C39.0127 39.4894 39.0305 39.5715 39.0501 39.6537C39.3476 39.6602 39.645 39.6602 39.9459 39.6602C39.9831 38.6638 39.973 37.6707 39.9628 36.6743V36.6729C39.9662 36.1891 39.6991 35.6793 39.1988 35.5169ZM37.6099 38.9101C37.2313 38.7673 37.2449 38.225 37.5356 38.0042C37.8604 37.7272 38.3052 37.657 38.7206 37.5915C38.7678 37.5841 38.8146 37.5767 38.8608 37.5691C38.8675 37.8938 38.8675 38.2153 38.8675 38.54C38.5092 38.7803 38.0663 39.0757 37.6099 38.9101Z" fill="black"/>
<path d="M30.3992 34.1564C30.7474 34.085 31.1058 34.0395 31.4573 34.0103C31.4675 34.4909 31.4675 34.9714 31.4675 35.4552C31.6116 35.4585 31.7565 35.4633 31.9018 35.4681C32.0497 35.473 32.1981 35.4779 32.3464 35.4812C32.4039 35.754 32.4512 36.0332 32.4952 36.3092C32.1537 36.3255 31.8157 36.3385 31.481 36.345C31.4832 36.5794 31.4783 36.8145 31.4735 37.0499C31.4633 37.5447 31.4531 38.0406 31.508 38.5335C31.5894 38.7917 31.8651 38.808 32.1211 38.8231C32.2161 38.8287 32.3083 38.8341 32.387 38.8517C32.4445 39.131 32.4884 39.4135 32.5188 39.696L32.478 39.7001C31.9372 39.7544 31.3336 39.8152 30.8522 39.5206C30.5277 39.3128 30.4263 38.9231 30.4094 38.5757C30.3879 38.1856 30.392 37.7954 30.3961 37.4048V37.4047C30.3997 37.0574 30.4034 36.7096 30.3891 36.3612L30.3024 36.3528C30.1303 36.336 29.9546 36.3189 29.784 36.2995C29.7907 36.0332 29.8009 35.7702 29.811 35.5007C29.905 35.4929 29.9981 35.4844 30.0917 35.4758L30.0932 35.4757C30.1944 35.4664 30.2959 35.4572 30.3992 35.4488C30.3891 35.0136 30.3925 34.585 30.406 34.1564H30.3992Z" fill="black"/>
<path d="M21.6165 35.439C21.2379 35.4585 20.8593 35.4974 20.484 35.5689L20.4874 35.5721C20.763 36.3509 21.0634 37.1207 21.3642 37.8914L21.3646 37.8926C21.5728 38.4261 21.7812 38.9601 21.9816 39.4979C22.1337 39.8421 21.8396 40.2317 21.5016 40.3421C21.3244 40.3697 21.1472 40.3696 20.9688 40.3695H20.9682C20.8949 40.3695 20.8215 40.3694 20.7477 40.3713C20.795 40.6441 20.8424 40.9201 20.8897 41.1993C21.4002 41.287 21.985 41.2708 22.3907 40.9168C22.7786 40.5697 22.9535 40.0902 23.1256 39.6186C23.1724 39.4902 23.219 39.3625 23.2696 39.2381C23.4454 38.7441 23.6326 38.2547 23.8197 37.7656C24.111 37.004 24.4019 36.2433 24.6489 35.4682C24.2838 35.465 23.9254 35.4747 23.5637 35.4942C23.4578 35.8092 23.3564 36.1259 23.255 36.4427C23.0521 37.0763 22.8493 37.7098 22.6104 38.3289C22.4134 37.794 22.2324 37.253 22.0512 36.7116C21.9089 36.2867 21.7667 35.8616 21.6165 35.439Z" fill="black"/>
<path d="M25.352 35.4715C25.5575 35.4715 25.7645 35.4744 25.9689 35.4774L25.9719 35.4774C26.0691 35.4788 26.1658 35.4802 26.2614 35.4812C26.2749 35.5418 26.2881 35.6024 26.3012 35.663C26.3275 35.7842 26.3538 35.9055 26.3831 36.0267C26.853 35.6566 27.4108 35.2994 28.0497 35.4C28.6075 35.4195 29.0504 35.9066 29.0605 36.4261C29.0812 37.2508 29.0762 38.0774 29.0711 38.9015V38.9022L29.0711 38.9036C29.0696 39.1561 29.0681 39.4083 29.0673 39.6602C28.8945 39.6635 28.7225 39.6659 28.5509 39.6683C28.3768 39.6707 28.2031 39.6732 28.0294 39.6765C27.9755 39.1544 27.9847 38.6315 27.9939 38.1091C28.002 37.6502 28.0101 37.1917 27.9754 36.7346C27.928 36.3287 27.4074 36.228 27.0795 36.3904C26.8023 36.5203 26.4271 36.7086 26.4473 37.0561C26.4368 37.5062 26.4399 37.9554 26.443 38.4047C26.4459 38.824 26.4487 39.2434 26.4406 39.6635C26.0721 39.67 25.7104 39.67 25.3419 39.657C25.3453 38.9572 25.3453 38.2583 25.3453 37.5602C25.3453 36.862 25.3453 36.1647 25.3487 35.4682L25.352 35.4715Z" fill="black"/>
<path d="M34.2598 35.478C33.9522 35.4715 33.6412 35.4715 33.3302 35.4715V39.6602C33.6919 39.6732 34.057 39.6732 34.4187 39.6667C34.4322 39.319 34.4271 38.9699 34.4219 38.6207C34.4154 38.1841 34.4089 37.7474 34.439 37.3126C34.6959 36.7638 35.3551 36.53 35.9332 36.4034C35.9231 36.0624 35.869 35.7183 35.7743 35.3838C35.1861 35.4293 34.7669 35.8287 34.3815 36.2118C34.3376 35.9618 34.297 35.7215 34.2598 35.478Z" fill="black"/>
</svg>
