<svg width="52" height="52" viewBox="0 0 52 52" fill="none" xmlns="http://www.w3.org/2000/svg">
<rect width="52" height="52" fill="white"/>
<path d="M23.7075 31.3111C23.388 31.3111 23.0643 31.2447 22.7531 31.1078L16.114 28.1492C14.9272 27.6222 14.3919 26.2238 14.9189 25.0371L17.8775 18.3979C18.4045 17.2111 19.8029 16.6759 20.9896 17.2028L27.6288 20.1614C28.8155 20.6884 29.3508 22.0868 28.8238 23.2735L25.8653 29.9127C25.471 30.7924 24.608 31.3111 23.7075 31.3111ZM23.305 29.8629C23.8071 30.087 24.3963 29.8588 24.6204 29.3608L27.579 22.7217C27.8031 22.2196 27.5748 21.6303 27.0769 21.4063L20.4336 18.4477C19.9315 18.2236 19.3423 18.4518 19.1182 18.9498L16.1596 25.589C15.9355 26.091 16.1638 26.6803 16.6617 26.9043L23.305 29.8629Z" fill="#089949"/>
<path d="M44.5335 31.3153H37.2636C35.9649 31.3153 34.9067 30.2571 34.9067 28.9584V21.6885C34.9067 20.3897 35.9649 19.3315 37.2636 19.3315H44.5335C45.8323 19.3315 46.8904 20.3897 46.8904 21.6885V28.9584C46.8904 30.2571 45.8323 31.3153 44.5335 31.3153ZM37.2636 20.6926C36.7159 20.6926 36.2678 21.1407 36.2678 21.6885V28.9584C36.2678 29.5061 36.7159 29.9542 37.2636 29.9542H44.5335C45.0813 29.9542 45.5294 29.5061 45.5294 28.9584V21.6885C45.5294 21.1407 45.0813 20.6926 44.5335 20.6926H37.2636Z" fill="#F9B21D"/>
<path d="M17.3089 23.0204L16.3296 25.2113C16.3172 25.2362 16.3047 25.2569 16.2923 25.2777L16.674 27.6346C16.7612 28.1782 16.3918 28.6886 15.8524 28.7757L8.67381 29.9376C8.41239 29.9791 8.14682 29.9168 7.93105 29.7633C7.71528 29.6098 7.57419 29.3774 7.5327 29.116L6.37084 21.9374C6.32935 21.6759 6.39159 21.4104 6.54512 21.1946C6.69865 20.9788 6.93102 20.8377 7.19244 20.7962L14.371 19.6344C14.425 19.6261 14.4789 19.6219 14.5287 19.6219C15.0059 19.6219 15.4333 19.9705 15.5122 20.4601L15.8981 22.8336L16.9105 20.5639L16.8566 20.2444C16.6491 18.9622 15.4375 18.0866 14.1553 18.2941L6.97667 19.456C6.35839 19.5514 5.81066 19.8875 5.44551 20.3979C5.0762 20.9083 4.93097 21.5307 5.03056 22.1531L6.19242 29.3317C6.292 29.9542 6.62811 30.4977 7.1385 30.867C7.541 31.1617 8.01819 31.311 8.51198 31.311C8.63646 31.311 8.7651 31.3027 8.89373 31.282L16.0723 30.1201C17.3545 29.9127 18.2301 28.701 18.0226 27.4188L17.3089 23.0204Z" fill="#E42527"/>
<path d="M25.9193 26.4479L26.9733 24.0869L26.6745 21.8918C26.6371 21.6304 26.7077 21.369 26.8695 21.1573C27.0313 20.9457 27.2637 20.8088 27.5293 20.7756L34.7328 19.7963C34.7784 19.7922 34.8241 19.788 34.8697 19.788C35.0855 19.788 35.293 19.8586 35.4714 19.9913C35.5046 20.0162 35.5336 20.0453 35.5627 20.0702C35.8822 19.7341 36.3013 19.4934 36.7702 19.3897C36.6374 19.2071 36.4797 19.0453 36.293 18.9042C35.7909 18.5224 35.1726 18.3606 34.5502 18.4436L27.3384 19.4229C26.716 19.5059 26.16 19.8295 25.7824 20.3316C25.4006 20.8337 25.2388 21.452 25.3218 22.0744L25.9193 26.4479Z" fill="#226DB4"/>
<path d="M38.1766 27.6638L37.2305 20.6926C36.6994 20.7092 36.272 21.1491 36.272 21.6844V23.7301L36.8322 27.8463C36.8695 28.1078 36.799 28.3692 36.6371 28.5808C36.4753 28.7924 36.2429 28.9294 35.9774 28.9626L28.7739 29.9418C28.5124 29.9792 28.251 29.9086 28.0394 29.7468C27.8278 29.585 27.6909 29.3526 27.6577 29.087L27.3257 26.643L26.2717 29.004L26.3091 29.2696C26.3921 29.892 26.7157 30.4481 27.2178 30.8257C27.6328 31.141 28.1265 31.307 28.6411 31.307C28.749 31.307 28.8569 31.2987 28.9647 31.2863L36.1599 30.3153C36.7824 30.2323 37.3384 29.9086 37.716 29.4065C38.0978 28.9045 38.2596 28.2862 38.1766 27.6638Z" fill="#226DB4"/>
<path d="M31.8945 33.9086C31.8945 33.2862 32.351 32.838 32.9734 32.838C33.6166 32.838 34.0523 33.2779 34.0523 33.9127C34.0523 34.5559 33.6083 34.9999 32.9651 34.9999C32.3178 34.9999 31.8945 34.5559 31.8945 33.9086ZM33.5543 33.9169C33.5543 33.5393 33.3717 33.2156 32.9609 33.2156C32.546 33.2156 32.3883 33.5517 32.3883 33.9335C32.3883 34.2945 32.5833 34.6264 32.9817 34.6264C33.3925 34.6223 33.5543 34.2696 33.5543 33.9169ZM27.2927 32.8712H27.5998C27.6454 32.8712 27.6828 32.9086 27.6828 32.9542V33.726H28.5542V32.9542C28.5542 32.9086 28.5915 32.8712 28.6372 32.8712H28.9442C28.9899 32.8712 29.0272 32.9086 29.0272 32.9542V34.8837C29.0272 34.9294 28.9899 34.9667 28.9442 34.9667H28.6413C28.5957 34.9667 28.5583 34.9294 28.5583 34.8837V34.1036H27.6869V34.8837C27.6869 34.9294 27.6496 34.9667 27.604 34.9667H27.2969C27.2512 34.9667 27.2139 34.9294 27.2139 34.8837V32.9542C27.2097 32.9086 27.2471 32.8712 27.2927 32.8712ZM22.1847 33.9086C22.1847 33.2862 22.6412 32.838 23.2636 32.838C23.9068 32.838 24.3425 33.2779 24.3425 33.9127C24.3425 34.5559 23.8985 34.9999 23.2553 34.9999C22.608 34.9999 22.1847 34.5559 22.1847 33.9086ZM23.8487 33.9169C23.8487 33.5393 23.6661 33.2156 23.2553 33.2156C22.8403 33.2156 22.6827 33.5517 22.6827 33.9335C22.6827 34.2945 22.8777 34.6264 23.276 34.6264C23.6868 34.6223 23.8487 34.2696 23.8487 33.9169ZM17.8527 34.7634L18.8817 33.2447H18.0352C17.9896 33.2447 17.9523 33.2073 17.9523 33.1617V32.9583C17.9523 32.9127 17.9896 32.8754 18.0352 32.8754H19.4253C19.471 32.8754 19.5083 32.9127 19.5083 32.9583V33.0372C19.5083 33.0538 19.5042 33.0704 19.4959 33.0828L18.4875 34.6015H19.3921C19.4378 34.6015 19.4751 34.6389 19.4751 34.6845V34.8879C19.4751 34.9335 19.4378 34.9708 19.3921 34.9708H17.9232C17.8776 34.9708 17.8402 34.9335 17.8402 34.8879V34.8132C17.8361 34.7924 17.8444 34.7758 17.8527 34.7634Z" fill="black"/>
</svg>
